SplineFontDB: 1.0
FontName: Tuffy-Italic
FullName: Tuffy Italic
FamilyName: Tuffy
Weight: Regular
Copyright: Created by Thatcher Ulrich (http://tulrich.com) with FontForge 1.0 (http://fontforge.sf.net)\n\nThis font, including hint instructions, has been donated to the Public Domain.  Do whatever you want with it.\n
Comments: 2004-9-1: Created.
Version: 001.000
DefaultBaseFilename: Tuffy_Italic
ItalicAngle: 0
UnderlinePosition: -100
UnderlineWidth: 50
Ascent: 780
Descent: 220
NeedsXUIDChange: 1
XUID: [1021 745 1046372284 8159896]
FSType: 0
OS2Version: 0
OS2_WeightWidthSlopeOnly: 0
OS2_UseTypoMetrics: 0
CreationTime: 1166531129
ModificationTime: 1169793402
PfmFamily: 33
TTFWeight: 500
TTFWidth: 5
LineGap: 93
VLineGap: 0
Panose: 2 11 6 3 6 1 0 0 0 0
OS2TypoAscent: 0
OS2TypoAOffset: 1
OS2TypoDescent: 0
OS2TypoDOffset: 1
OS2TypoLinegap: 0
OS2WinAscent: 0
OS2WinAOffset: 1
OS2WinDescent: 0
OS2WinDOffset: 1
HheadAscent: 0
HheadAOffset: 1
HheadDescent: 0
HheadDOffset: 1
OS2Vendor: 'PfEd'
ScriptLang: 2
 1 latn 1 dflt 
 1 DFLT 1 dflt 
TtfTable: cvt  4
!$MDh
EndTtf
LangName: 1033 "" "" "" "" "" "" "" "" "" "Thatcher Ulrich" "" "http://tulrich.com+AAoA" "http://tulrich.com+AAoA" "Public Domain+AAoA" 
LangName: 1036 "" "" "NormalItalique" 
LangName: 1040 "" "" "NormaleCursivo" 
LangName: 1031 "" "" "StandardKursiv" 
LangName: 1034 "" "" "NormalCursiva" 
LangName: 1049 "" "" "+BB4EMQRLBEcEPQRLBDkEGgRDBEAEQQQ4BDIA" 
LangName: 1038 "" "" "Norm+AOEA-lD+AVEA-lt" 
LangName: 1043 "" "" "RegelmatigCursief" 
LangName: 1053 "" "" "MagerKursiv" 
LangName: 1044 "" "" "VanligKursiv" 
Encoding: Custom
UnicodeInterp: none
NameList: Adobe Glyph List
DisplaySize: -48
AntiAlias: 1
FitToEm: 1
WinInfo: 17 17 9
BeginPrivate: 7
BlueValues 23 [-16 2 522 538 708 728]
OtherBlues 0 
StdHW 4 [66]
StdVW 5 [70]

StemSnapH 6 [66] 

StemSnapV 6 [70] 

BlueScale 8 0.039625
EndPrivate
Grid
-24 262 m 6
 772 262 l 4
531 830 m 29
 531 -16 l 29
-20 710 m 6
 776 710 l 4
-22 524 m 6
 774 524 l 4
490 830 m 29

StartChar: exclam
Encoding: 1 33 1
Width: 206
Flags: W
HStem: -6.5 105<86.2619 139.293> 704 20G<249.391 273.432>
VStem: 59.0957 107.364<35.0574 56.9561 35.0574 56.9561> 124.995 177.179<208.57 686.941>
Fore
182.698 215 m 1xd0
 179.085 198 162.535 186 148.535 186 c 1
 134.867 186.285 124.995 195.121 124.995 208.57 c 0
 124.995 210.612 125.222 212.76 125.698 215 c 1
 204.113 678 l 1
 209.64 704 236.891 724 261.891 724 c 1
 284.973 724 302.173 707.449 302.173 686.941 c 0
 302.173 684.349 301.899 681.693 301.326 679 c 1
 182.698 215 l 1xd0
EndSplineSet
Refer: 14 46 N 1 0 0 1 0 0 2
EndChar
StartChar: quotedbl
Encoding: 2 34 2
Width: 337
Flags: W
HStem: 510 243.054<350.404 401.13 350.404 401.13>
VStem: 185.974 246.278<528.888 725.486>
Fore
329.293 533 m 1
 358.189 716 l 1
 363.315 740.105 383.729 753.054 401.13 753.054 c 0
 401.775 753.054 402.418 753.036 403.055 753 c 0
 418.605 753 432.253 744.044 432.252 725.486 c 0
 432.252 722.562 431.913 719.402 431.189 716 c 1
 382.293 533 l 1
 378.104 518 362.404 510 350.404 510 c 0
 339.487 510 328.974 515.794 328.974 528.888 c 0
 328.973 530.186 329.076 531.557 329.293 533 c 1
186.293 533 m 1
 215.189 716 l 1
 220.315 740.105 240.729 753.054 258.13 753.054 c 0
 258.775 753.054 259.418 753.036 260.055 753 c 0
 275.605 753 289.252 744.044 289.252 725.486 c 0
 289.252 722.562 288.913 719.402 288.189 716 c 1
 239.293 533 l 1
 235.104 518 219.404 510 207.404 510 c 0
 196.487 510 185.974 515.794 185.974 528.888 c 0
 185.973 530.186 186.076 531.557 186.293 533 c 1
EndSplineSet
EndChar
StartChar: numbersign
Encoding: 3 35 3
Width: 776
Flags: W
HStem: 198 69<119.753 275.086 362.753 515.086 602.753 764.086> 432 68<169.278 324.824 412.278 564.824 652.278 813.824>
Fore
529.753 267 m 0
 564.824 432 l 0
 397.824 432 l 0
 362.753 267 l 0
 529.753 267 l 0
588.086 198 m 0
 551.526 26 l 1
 478.526 26 l 1
 515.086 198 l 0
 348.086 198 l 0
 311.526 26 l 1
 238.526 26 l 1
 275.086 198 l 0
 105.086 198 l 1
 119.753 267 l 1
 289.753 267 l 0
 324.824 432 l 0
 154.824 432 l 1
 169.278 500 l 1
 339.278 500 l 0
 378.603 685 l 1
 451.603 685 l 1
 412.278 500 l 0
 579.278 500 l 0
 618.603 685 l 1
 691.603 685 l 1
 652.278 500 l 0
 828.278 500 l 1
 813.824 432 l 1
 637.824 432 l 0
 602.753 267 l 0
 778.753 267 l 1
 764.086 198 l 1
 588.086 198 l 0
EndSplineSet
KernsSLIFO: 4 -27 0 0
EndChar
StartChar: dollar
Encoding: 4 36 4
Width: 497
Flags: W
VStem: 145.178 80.1266<414.687 512.854> 438.294 81.7304<189.377 265.493>
Back
212 730 m 1
 284 730 l 1
 284 -56 l 1
 212 -56 l 1
 212 730 l 1
12 130 m 1
 78 169 l 1
 122 101 157.001 55 248.001 55 c 1
 337.001 55 396 107 396 184 c 1
 396 276 308.612 304.304 222 328 c 0
 146.2 348.738 45 381 41 505 c 0
 37.1309 624.938 134 690 248 690 c 1
 365 690 411 638 456.999 570 c 1
 396 531 l 1
 367 581 326 621 248 621 c 1
 173 621 120 585 120 505 c 0
 120 412 204.783 409.649 275.999 382 c 0
 366.75 346.769 476 329 475 184 c 0
 474.159 62.0029 380 -13 248 -14 c 1
 139 -13 77 28 12 130 c 1
EndSplineSet
Fore
380.512 750.442 m 1
 443.512 750.442 l 1
 430.396 688.739 l 1
 504.176 683 549.398 637 578.251 570.442 c 1
 508.962 531.442 l 1
 496.944 569 466.659 610 415.199 617.245 c 1
 364.484 378.647 l 1
 438.982 347.844 520.025 327.599 520.025 232.747 c 0
 520.025 219.122 518.352 203.957 514.748 187 c 0
 492.43 82 403 0 281.347 -12.4834 c 1
 267.948 -75.5186 l 1
 205.948 -75.5186 l 1
 219.35 -12.4688 l 1
 113.149 -4 75.4277 45.7148 39.6328 130 c 1
 113.922 169 l 1
 137.031 115.814 159.816 65 234.116 57 c 1
 291.719 328 l 1
 210.4 348.785 145.178 385.32 145.178 470.082 c 0
 145.178 483.194 146.739 497.46 150.042 513 c 0
 172.147 617 267.964 682 367.2 687.82 c 1
 380.512 750.442 l 1
306.836 399.124 m 1
 353.785 620 l 1
 293.297 613 241.795 573 229.042 513 c 0
 226.503 501.056 225.305 490.42 225.305 480.92 c 0
 225.305 429.971 259.774 411.662 306.836 399.124 c 1
349.431 307.829 m 1
 296.328 58 l 1
 369.879 70 421.082 118 435.748 187 c 0
 437.435 194.937 438.294 202.672 438.294 210.167 c 0
 438.294 252.726 410.594 287.568 349.431 307.829 c 1
EndSplineSet
EndChar
StartChar: percent
Encoding: 5 37 5
Width: 685
Flags: W
HStem: 51 56<480.734 577.442> 255 59<508.802 604.393> 395 56<232.6 329.563> 599 59<260.921 356.511>
VStem: 159.83 62.9453<464.857 531.167> 368.446 64.2979<521.735 583.124> 407.71 63.8828<120.68 187.317> 616.326 64.2979<177.736 239.123>
Fore
473.687 182 m 0xfb
 472.28 175.392 471.593 169.006 471.593 162.937 c 0
 471.592 130.432 491.352 107 526.742 107 c 0
 565.742 107 605.333 138 614.687 182 c 0
 615.791 187.202 616.326 192.315 616.326 197.27 c 0
 616.326 229.465 593.733 255 558.202 255 c 0
 520.202 255 481.975 221 473.687 182 c 0xfb
410.687 182 m 0
 426.202 255 497.743 314 571.743 314 c 0
 636.275 314 680.625 269.13 680.624 209.235 c 0
 680.626 200.449 679.671 191.339 677.687 182 c 0
 662.169 109 589.842 51 515.842 51 c 0
 451.42 51 407.71 94.9561 407.71 154.497 c 0
 407.709 163.351 408.677 172.55 410.687 182 c 0
224.805 526 m 0
 223.44 519.587 222.776 513.384 222.775 507.476 c 0
 222.776 474.692 243.276 451 278.863 451 c 0
 317.863 451 357.452 482 366.805 526 c 0
 367.911 531.202 368.445 536.316 368.446 541.271 c 0xfd
 368.446 573.466 345.852 599 310.321 599 c 0
 272.321 599 233.096 565 224.805 526 c 0
162.805 526 m 0
 178.321 599 249.862 658 323.862 658 c 0
 388.396 658 432.744 613.13 432.744 553.235 c 0
 432.744 544.449 431.79 535.339 429.805 526 c 0
 414.288 453 341.96 395 267.96 395 c 0
 203.539 395 159.83 438.956 159.83 498.497 c 0
 159.83 507.351 160.796 516.55 162.805 526 c 0
221.241 67 m 1
 148.241 67 l 1
 622.888 644 l 0
 692.888 644 l 1
 221.241 67 l 1
EndSplineSet
EndChar
StartChar: ampersand
Encoding: 6 38 6
Width: 606
Flags: W
HStem: -14 69<204.39 393.591> 199 68<377.753 458.299 539.086 608.086> 359 69<304.307 402.309> 660 69<335.387 503.087>
VStem: 88.7293 77.8471<74.4552 210.387> 195.841 78.6293<446.737 548.633>
Back
501 123 m 13xd0
 425 146 l 21
 399.999 92 341.999 55 288.999 55 c 5
 202 55 127 112 127 207 c 4xd0
 127 305 209.27 357 287 357 c 6
 325 357 l 5
 325 418 l 5
 277 418 l 4
 216 418 160 470 160 545 c 4
 160 612 218 663 278 663 c 6
 281 663 l 4
 335 663 375 632 394.999 586 c 13
 462 617 l 21
 428 684 360 731 278 731 c 4
 180 731 83 656 83 545 c 4xe0
 83 459 139 405 172 388 c 5
 125.361 373.9 50 304 50 207 c 4
 50 78 155 -14 289 -14 c 5
 365 -14 463 35 501 123 c 13xd0
EndSplineSet
Fore
520.559 586 m 17
 507.123 631 483.287 660 417.287 660 c 1
 354.287 660 291.723 615 277.269 547 c 0
 275.365 538.045 274.471 529.48 274.471 521.345 c 0
 274.471 463.954 318.999 428 367.975 428 c 2
 416.975 428 l 1
 402.309 359 l 1
 355.309 359 l 2
 264.309 359 191.468 308 170.637 210 c 0
 167.871 196.99 166.576 184.723 166.576 173.228 c 0
 166.576 97.2489 223.152 55 285.691 55 c 0
 368.691 55 442.568 125 458.299 199 c 1
 363.299 199 l 1
 377.753 267 l 1
 622.753 267 l 1
 608.086 198 l 1
 539.086 198 l 1
 521.656 116 426.024 -14 271.024 -14 c 0
 167.666 -14 88.7293 61.1883 88.7293 164.523 c 0
 88.7293 179.162 90.3135 194.365 93.6367 210 c 0
 117.019 320 211.048 386 262.385 397 c 1
 227.084 413.516 195.841 449.125 195.841 507.206 c 0
 195.841 519.46 197.232 532.714 200.269 547 c 0
 219.823 639 313.954 729 431.954 729 c 0
 521.954 729 575.113 678 593.36 618 c 9
 520.559 586 l 17
EndSplineSet
EndChar
StartChar: quotesingle
Encoding: 7 39 7
Width: 187
Flags: W
HStem: 510 243.054<207.404 258.13 207.404 258.13>
VStem: 185.974 103.278<528.888 725.486>
Fore
186.293 533 m 1
 215.189 716 l 1
 220.315 740.105 240.729 753.054 258.13 753.054 c 0
 258.775 753.054 259.418 753.036 260.055 753 c 0
 275.605 753 289.252 744.044 289.252 725.486 c 0
 289.252 722.562 288.913 719.402 288.189 716 c 1
 239.293 533 l 1
 235.104 518 219.404 510 207.404 510 c 0
 196.487 510 185.974 515.794 185.974 528.888 c 0
 185.973 530.186 186.076 531.557 186.293 533 c 1
EndSplineSet
EndChar
StartChar: parenleft
Encoding: 8 40 8
Width: 268
Flags: W
VStem: 79.6988 76.4545<95.2448 287.225>
Fore
127.285 -41 m 1
 97.4805 27.0721 79.6988 110.211 79.6988 202.282 c 0
 79.6988 252.834 85.0592 306.078 96.7334 361 c 0
 123.515 487 194.186 636 296.905 757 c 1
 383.905 757 l 1
 266.061 626 197.515 487 169.67 356 c 0
 160.341 312.109 156.153 268.479 156.153 226.115 c 0
 156.153 125.446 179.799 31.92 214.285 -41 c 1
 127.285 -41 l 1
EndSplineSet
EndChar
StartChar: parenright
Encoding: 9 41 9
Width: 262
Flags: W
VStem: 261.61 76.407<420.513 614.941>
Fore
121.285 -41 m 1
 35.2852 -41 l 1
 145.43 82 221.25 227 248.458 355 c 0
 257.482 397.45 261.61 441.237 261.61 484.606 c 0
 261.61 584.864 239.548 682.887 204.905 757 c 1
 290.905 757 l 1
 319.634 689.212 338.017 600.477 338.017 505.046 c 0
 338.017 456.149 333.191 405.495 322.458 355 c 0
 293.975 221 226.005 80 121.285 -41 c 1
EndSplineSet
EndChar
StartChar: asterisk
Encoding: 10 42 10
Width: 446
Flags: W
HStem: 278 69<106.757 232.091 365.757 484.091>
VStem: 92.0908 406.666<278 347>
Fore
350.091 278 m 1
 391.072 165 l 1
 324.42 129 l 1
 282.651 243 l 1
 192.42 129 l 1
 139.859 164 l 1
 232.091 278 l 1
 92.0908 278 l 1
 106.757 347 l 1
 245.757 347 l 1
 200.689 469 l 1
 267.13 504 l 1
 311.984 381 l 1
 408.554 506 l 1
 459.9 470 l 1
 365.757 347 l 1
 498.757 347 l 1
 484.091 278 l 1
 350.091 278 l 1
EndSplineSet
EndChar
StartChar: plus
Encoding: 11 43 11
Width: 437
Flags: W
HStem: 278 69<111.757 247.091 330.757 466.091>
VStem: 97.0908 383.666<278 347>
Fore
111.757 347 m 1
 261.757 347 l 1
 294.064 499 l 1
 363.064 499 l 1
 330.757 347 l 1
 480.757 347 l 1
 466.091 278 l 1
 316.091 278 l 1
 283.782 126 l 1
 214.782 126 l 1
 247.091 278 l 1
 97.0908 278 l 1
 111.757 347 l 1
EndSplineSet
EndChar
StartChar: comma
Encoding: 12 44 12
Width: 195
Flags: W
VStem: 48.2324 118.228<-93 56.9561>
Fore
165.276 46 m 1
 148.911 -31 86.6572 -91 72.0439 -108 c 1
 48.2324 -93 l 1
 61.4209 -78 94.2852 -41 101.725 -6 c 0
 76.4863 -6 59.0996 11.459 59.0996 35.1094 c 0
 59.0996 38.6152 59.4824 42.2578 60.2773 46 c 0
 66.4375 74.9805 94.9561 98.5 123.937 98.5 c 0
 149.161 98.5 166.461 80.6836 166.46 56.9561 c 0
 166.459 53.4219 166.076 49.7568 165.276 46 c 1
EndSplineSet
EndChar
StartChar: hyphen
Encoding: 13 45 13
Width: 423
Flags: W
HStem: 275 69<126.119 442.453>
VStem: 111.453 345.666<275 344>
Fore
126.119 344 m 1
 457.119 344 l 1
 442.453 275 l 1
 111.453 275 l 1
 126.119 344 l 1
EndSplineSet
EndChar
StartChar: period
Encoding: 14 46 14
Width: 198
Flags: W
HStem: -6.5 105<86.2619 139.293>
VStem: 59.0957 107.364<35.0574 56.9561 35.0574 56.9561>
Back
27.1055 67.7627 m 4
 27.1055 105.167 57.4629 135.525 94.8672 135.525 c 4
 132.272 135.525 162.63 105.167 162.63 67.7627 c 4
 162.63 30.3574 132.272 0 94.8672 0 c 4
 57.4629 0 27.1055 30.3574 27.1055 67.7627 c 4
EndSplineSet
Fore
60.2773 46 m 0
 66.4375 74.9805 94.9561 98.5 123.937 98.5 c 0
 149.161 98.5 166.461 80.6836 166.46 56.9561 c 0
 166.459 53.4219 166.076 49.7568 165.276 46 c 0
 159.116 17.0195 130.599 -6.5 101.618 -6.5 c 0
 76.3905 -6.5 59.0957 11.3173 59.0957 35.0574 c 0
 59.0957 38.5874 59.4805 42.2479 60.2773 46 c 0
EndSplineSet
EndChar
StartChar: slash
Encoding: 15 47 15
Width: 395
Flags: W
HStem: 0 21G<-11 66>
Fore
66 0 m 1
 -11 0 l 1
 499.268 754 l 0
 576.268 754 l 1
 66 0 l 1
EndSplineSet
KernsSLIFO: 15 -70 0 0
EndChar
StartChar: zero
Encoding: 16 48 16
Width: 555
Flags: W
HStem: -14 69<193.232 433.391> 660 69<283.887 521.185>
VStem: 109.535 78.207<106.528 295.154> 525.331 77.6885<420.02 609.487>
Fore
124.458 355 m 1
 166.969 555 290.954 729 438.954 729 c 1
 551.156 729 603.019 628.992 603.02 493.466 c 0
 603.019 450.228 597.74 403.374 587.458 355 c 1
 545.159 156 425.024 -14 277.024 -14 c 1
 163.648 -14 109.535 85.3486 109.535 221.76 c 0
 109.534 263.42 114.562 308.444 124.458 355 c 1
201.458 355 m 1
 192.822 314.373 187.741 271.158 187.742 230.527 c 0
 187.743 135.144 215.953 55 291.691 55 c 1
 400.691 55 481.55 219 510.458 355 c 1
 519.665 398.316 525.332 444.732 525.331 487.956 c 0
 525.332 581.441 498.824 660 424.287 660 c 1
 316.287 660 230.578 492 201.458 355 c 1
EndSplineSet
EndChar
StartChar: one
Encoding: 17 49 17
Width: 555
Flags: W
HStem: 0 21G<284 361> 691 20G<436.128 512.128>
VStem: 249.38 262.748<524 711>
Fore
409.196 589 m 1
 297.963 475 l 1
 249.38 524 l 1
 436.128 711 l 1
 512.128 711 l 1
 361 0 l 1
 284 0 l 1
 409.196 589 l 1
EndSplineSet
EndChar
StartChar: two
Encoding: 18 50 18
Width: 555
Flags: W
HStem: 0 69<157.666 496> 661 69<337.9 490.669>
VStem: 521.621 77.2648<522.874 644.998>
Back
54.5947 492.06 m 4
 54.5947 623.265 151.739 729.75 271.435 729.75 c 4
 391.131 729.75 488.275 623.265 488.275 492.06 c 4
 488.275 360.855 391.131 254.37 271.435 254.37 c 4
 151.739 254.37 54.5947 360.855 54.5947 492.06 c 4
165.1 492.06 m 4
 165.1 568.021 212.738 629.67 271.435 629.67 c 4
 330.132 629.67 377.77 568.021 377.77 492.06 c 4
 377.77 416.1 330.132 354.45 271.435 354.45 c 4
 212.738 354.45 165.1 416.1 165.1 492.06 c 4
EndSplineSet
Fore
243.206 542 m 9
 180.943 569 l 17
 224.862 658 334.166 730 433.166 730 c 0
 521.56 730 598.885 681.391 598.885 572.796 c 0
 598.885 554.852 596.774 535.271 592.253 514 c 0
 563.133 377 399.628 298.04 345.115 264 c 0
 287.463 228 171.482 134 157.666 69 c 1
 510.666 69 l 17
 496 0 l 1
 53 0 l 1
 86.7969 159 217.84 258 336.145 330 c 0
 396.289 366.604 496.21 415 517.253 514 c 0
 520.231 528.009 521.621 541.06 521.621 553.135 c 0
 521.621 623.799 474.014 661 418.5 661 c 0
 356.5 661 284.998 621 243.206 542 c 9
EndSplineSet
EndChar
StartChar: three
Encoding: 19 51 19
Width: 550
Flags: W
HStem: -14 69<209.791 391.79> 357 61<319.849 433.823> 663 68<361.925 487.421>
VStem: 476.669 77.4885<203.532 339.659> 514.403 78.5661<541.6 640.158>
Back
12.5098 525.42 m 4
 12.5098 645.115 109.654 729.75 229.35 729.75 c 4
 349.046 729.75 446.19 645.115 446.19 525.42 c 4
 446.19 405.725 349.046 321.09 229.35 321.09 c 4
 109.654 321.09 12.5098 405.725 12.5098 525.42 c 4
110.505 525.42 m 4
 110.505 591.022 163.748 631.755 229.35 631.755 c 4
 294.952 631.755 348.195 591.022 348.195 525.42 c 4
 348.195 459.817 294.952 419.085 229.35 419.085 c 4
 163.748 419.085 110.505 459.817 110.505 525.42 c 4
229.35 525.42 m 29
11.4678 202.245 m 4
 11.4678 321.94 108.611 419.085 228.308 419.085 c 4
 348.003 419.085 445.147 321.94 445.147 202.245 c 4
 445.147 82.5488 348.003 -14.5947 228.308 -14.5947 c 4
 108.612 -14.5947 11.4678 82.5488 11.4678 202.245 c 4
109.463 202.245 m 4
 109.463 267.848 162.705 321.09 228.308 321.09 c 4
 293.91 321.09 347.152 267.848 347.152 202.245 c 4
 347.152 136.643 293.91 83.4004 228.308 83.4004 c 4
 162.705 83.4004 109.463 136.643 109.463 202.245 c 4
228.308 202.245 m 29
EndSplineSet
Fore
81.1445 123 m 9xf0
 162.033 146 l 17
 175.557 92 225.691 55 278.691 55 c 1
 365.69 55 452.807 112 472.999 207 c 0
 475.495 218.743 476.669 229.825 476.669 240.236 c 0xf0
 476.669 316.715 413.298 357 344.883 357 c 2
 306.883 357 l 1
 319.849 418 l 1
 367.849 418 l 0
 428.849 418 495.901 470 511.844 545 c 0
 513.579 553.163 514.403 561.089 514.403 568.714 c 0
 514.403 623.67 471.615 663 418.925 663 c 2
 415.925 663 l 0
 361.925 663 315.336 632 285.56 586 c 9
 225.147 617 l 17
 273.389 684 351.379 731 433.379 731 c 0
 519.754 731 592.969 672.738 592.969 582.916 c 0xe8
 592.969 570.827 591.642 558.167 588.844 545 c 0
 570.563 459 503.085 405 466.472 388 c 1
 504.061 375.856 554.158 322.317 554.158 245.721 c 0
 554.158 233.387 552.859 220.454 549.999 207 c 0
 522.579 78 398.024 -14 264.024 -14 c 1
 188.024 -14 100.439 35 81.1445 123 c 9xf0
EndSplineSet
EndChar
StartChar: four
Encoding: 20 52 20
Width: 555
Flags: W
HStem: 0 21G<345 422> 194 68<213.902 386.236 477.688 555.236> 691 20G<490.128 496.128 496.128 573.128 573.128 576.128>
VStem: 84.2363 491.892<194 711>
Fore
571.999 705.688 m 1
 477.688 262 l 9
 569.688 262 l 17
 555.236 194 l 1
 463.236 194 l 1
 422 0 l 1
 345 0 l 1
 386.236 194 l 1
 84.2363 194 l 9
 490.128 711 l 1
 496.128 711 l 1
 573.128 711 l 1
 576.128 711 l 1
 571.999 705.688 l 1
473.772 596.423 m 1
 213.902 263 l 1
 402.902 263 l 1
 473.772 596.423 l 1
EndSplineSet
EndChar
StartChar: five
Encoding: 21 53 21
Width: 555
Flags: W
HStem: -14 69<178.891 415.491> 394 66<321.276 460.628> 642 69<343.461 607.461>
VStem: 100.222 78.9756<104.115 169.531> 488.253 78.1426<234.008 362.75>
Back
109.463 552.525 m 4
 109.463 650.354 189.793 729.75 288.772 729.75 c 4
 387.752 729.75 468.082 650.354 468.082 552.525 c 4
 468.082 454.697 387.752 375.3 288.772 375.3 c 4
 189.793 375.3 109.463 454.697 109.463 552.525 c 4
70.8896 202.245 m 4
 70.8896 321.94 168.034 419.085 287.73 419.085 c 4
 407.426 419.085 504.57 321.94 504.57 202.245 c 4
 504.57 82.5488 407.426 -14.5947 287.73 -14.5947 c 4
 168.034 -14.5947 70.8896 82.5488 70.8896 202.245 c 4
168.885 202.245 m 4
 168.885 267.848 222.128 321.09 287.73 321.09 c 4
 353.332 321.09 406.575 267.848 406.575 202.245 c 4
 406.575 136.643 353.332 83.4004 287.73 83.4004 c 4
 222.128 83.4004 168.885 136.643 168.885 202.245 c 4
287.73 202.245 m 29
EndSplineSet
Fore
378.747 394 m 1
 300.747 394 259.308 359 241.757 347 c 1
 178.622 384 l 9
 294.128 711 l 1
 622.128 711 l 1
 607.461 642 l 1
 343.461 642 l 1
 267.037 433 l 1
 298.65 450 337.776 460 392.776 460 c 1
 498.675 460 566.396 391.816 566.396 285.241 c 0
 566.396 266.018 564.192 245.546 559.611 224 c 1
 532.829 98 425.024 -14 289.024 -14 c 1
 176.024 -14 107.328 58 100.222 161 c 9
 179.197 175 l 17
 185.568 125 207.691 55 303.691 55 c 1
 389.691 55 462.357 124 483.825 225 c 1
 486.83 239.139 488.253 252.813 488.253 265.848 c 0
 488.253 340.388 441.732 394 378.747 394 c 1
EndSplineSet
EndChar
StartChar: six
Encoding: 22 54 22
Width: 555
Flags: W
HStem: -14 73<205.141 410.541> 346 73<327.694 451.494>
VStem: 101.009 74.373<83.5953 202.357> 474.644 74.6602<199.581 314.492>
Back
97.3379 552.525 m 4
 97.3379 650.354 177.668 729.75 276.647 729.75 c 4
 375.627 729.75 455.957 650.354 455.957 552.525 c 4
 455.957 454.697 375.627 375.3 276.647 375.3 c 4
 177.668 375.3 97.3379 454.697 97.3379 552.525 c 4
58.7646 202.245 m 4
 58.7646 321.94 155.909 419.085 275.605 419.085 c 4
 395.301 419.085 492.445 321.94 492.445 202.245 c 4
 492.445 82.5488 395.301 -14.5947 275.605 -14.5947 c 4
 155.909 -14.5947 58.7646 82.5488 58.7646 202.245 c 4
156.76 202.245 m 4
 156.76 267.848 210.003 321.09 275.605 321.09 c 4
 341.207 321.09 394.45 267.848 394.45 202.245 c 4
 394.45 136.643 341.207 83.4004 275.605 83.4004 c 4
 210.003 83.4004 156.76 136.643 156.76 202.245 c 4
275.605 202.245 m 29
EndSplineSet
Fore
471.299 199 m 1
 473.549 209.584 474.643 219.97 474.644 230.021 c 0
 474.643 294.999 428.891 346 353.545 346 c 1
 266.545 346 194.24 274 178.724 201 c 1
 176.462 190.359 175.383 180.096 175.382 170.289 c 0
 175.381 103.602 225.541 59 293.541 59 c 1
 383.541 59 456.634 130 471.299 199 c 1
298.873 404 m 1
 322.786 413 340.062 419 369.062 419 c 0
 474.532 419 549.303 346.061 549.304 245.217 c 0
 549.304 230.368 547.682 214.915 544.299 199 c 1
 522.829 98 412.024 -14 276.024 -14 c 1
 163.43 -14 101.009 66.7666 101.009 157.532 c 0
 101.009 171.563 102.495 185.808 105.513 200 c 1
 126.767 300 203.409 383 235.337 425 c 1
 475.292 740 l 9
 529.429 703 l 17
 298.873 404 l 1
EndSplineSet
EndChar
StartChar: seven
Encoding: 23 55 23
Width: 555
Flags: W
HStem: 0 21G<167 256> 638 73<205.128 554.611>
Fore
678.128 711 m 1
 256 0 l 1
 167 0 l 1
 554.611 638 l 1
 189.611 638 l 1
 205.128 711 l 1
 678.128 711 l 1
EndSplineSet
EndChar
StartChar: eight
Encoding: 24 56 24
Width: 555
Flags: W
HStem: -14 69<200.596 411.391> 361 69<297.838 457.48> 662 69<321.714 513.835>
VStem: 90.7959 78.4424<83.94 210.427> 196.885 78.5947<446.448 548.709> 494.365 77.7705<208.461 338.237> 528.584 78.1992<545.587 641.125>
Back
66.7197 525.42 m 4
 66.7197 645.115 163.864 729.75 283.56 729.75 c 4
 403.256 729.75 500.4 645.115 500.4 525.42 c 4
 500.4 405.725 403.256 321.09 283.56 321.09 c 4
 163.864 321.09 66.7197 405.725 66.7197 525.42 c 4
164.715 525.42 m 4
 164.715 591.022 217.958 631.755 283.56 631.755 c 4
 349.162 631.755 402.405 591.022 402.405 525.42 c 4
 402.405 459.817 349.162 419.085 283.56 419.085 c 4
 217.958 419.085 164.715 459.817 164.715 525.42 c 4
283.56 525.42 m 29
65.6777 202.245 m 4
 65.6777 321.94 162.822 419.085 282.518 419.085 c 4
 402.213 419.085 499.357 321.94 499.357 202.245 c 4
 499.357 82.5488 402.213 -14.5947 282.518 -14.5947 c 4
 162.822 -14.5947 65.6777 82.5488 65.6777 202.245 c 4
163.673 202.245 m 4
 163.673 267.848 216.915 321.09 282.518 321.09 c 4
 348.12 321.09 401.362 267.848 401.362 202.245 c 4
 401.362 136.643 348.12 83.4004 282.518 83.4004 c 4
 216.915 83.4004 163.673 136.643 163.673 202.245 c 4
282.518 202.245 m 29
EndSplineSet
Fore
295.691 55 m 0xfc
 384.691 55 472.568 125 490.851 211 c 1
 493.233 222.214 494.364 232.924 494.365 243.084 c 0
 494.365 316.278 435.615 361 362.733 361 c 1
 274.733 361 193.042 306 172.851 211 c 0
 170.406 199.505 169.238 188.36 169.238 177.667 c 0
 169.238 105.569 222.541 55 295.691 55 c 0xfc
278.692 549 m 1
 276.522 538.787 275.479 529.127 275.479 520.061 c 0
 275.479 463.436 316.198 430 377.399 430 c 1
 447.399 430 509.539 473 525.692 549 c 1
 527.624 558.084 528.584 566.866 528.584 575.249 c 0xfa
 528.584 625.923 493.499 662 425.714 662 c 1
 345.714 662 291.872 611 278.692 549 c 1
440.379 731 m 1
 541.042 731 606.782 671.236 606.783 586.583 c 0xfa
 606.783 574.526 605.449 561.965 602.692 549 c 1
 582.501 454 512.573 412 477.747 394 c 1
 516.787 374.095 572.135 328.727 572.136 250.116 c 0xfc
 572.134 237.891 570.796 224.862 567.851 211 c 1
 540.43 82 409.024 -14 281.024 -14 c 1
 169.212 -14 90.7959 60.541 90.7959 164.3 c 0
 90.7959 179.323 92.4355 194.938 95.8506 211 c 1
 118.806 319 208.709 375 259.747 394 c 1
 232.869 412.293 196.885 443.031 196.885 506.335 c 0
 196.885 519.164 198.361 533.329 201.692 549 c 1
 223.587 652 325.379 731 440.379 731 c 1
EndSplineSet
EndChar
StartChar: nine
Encoding: 25 57 25
Width: 555
Flags: W
HStem: 294 73<272.058 395.859> 655 73<313.225 518.625>
VStem: 174.25 74.6592<398.508 513.419> 548.171 74.374<510.643 629.405>
Back
117.719 514.89 m 5
 117.719 451.893 166.675 396.171 236.647 396.171 c 5
 304.285 396.171 351.281 451.893 351.281 509.333 c 5
 351.281 581.162 296.987 630.838 233.395 630.838 c 5
 172.93 630.838 117.719 583.247 117.719 514.89 c 5
360.246 349.645 m 5
 331.39 310.112 277.18 296.07 236.647 296.07 c 5
 97.8701 296.07 16.8887 412.277 16.8887 513.963 c 5
 16.8887 634.33 113.508 731.282 233.395 731.282 c 4
 382.473 731.282 461.705 602.272 466.389 464.402 c 4
 467.5 431.674 465.463 396.234 460.66 351.812 c 5
EndSplineSet
Fore
252.254 514 m 1
 250.004 503.416 248.909 493.03 248.909 482.979 c 0
 248.91 418.001 294.662 367 370.008 367 c 1
 457.008 367 529.312 439 544.829 512 c 1
 547.091 522.641 548.17 532.904 548.171 542.711 c 0
 548.172 609.398 498.225 655 430.225 655 c 1
 340.225 655 266.922 583 252.254 514 c 1
424.68 309 m 1
 400.767 300 383.49 294 354.49 294 c 0
 249.021 294 174.25 366.94 174.25 467.784 c 0
 174.25 482.632 175.871 498.086 179.254 514 c 1
 200.724 615 311.741 728 447.741 728 c 1
 560.337 728 622.546 646.232 622.545 555.466 c 0
 622.545 541.436 621.058 527.191 618.042 513 c 1
 596.786 413 520.144 330 488.216 288 c 1
 248.261 -27 l 9
 194.126 10 l 17
 424.68 309 l 1
EndSplineSet
EndChar
StartChar: less
Encoding: 28 60 28
Width: 412
Flags: W
VStem: 106.893 407.279<310 603>
Fore
291.338 11 m 1
 106.893 310 l 1
 417.172 603 l 1
 514.172 603 l 1
 202.68 309 l 1
 388.338 11 l 1
 291.338 11 l 1
EndSplineSet
EndChar
StartChar: equal
Encoding: 29 61 29
Width: 443
Flags: W
HStem: 175 69<83.8652 460.197> 354 69<121.911 498.245>
VStem: 69.1973 443.714<175 423>
Fore
83.8652 244 m 1
 474.864 244 l 1
 460.197 175 l 1
 69.1973 175 l 1
 83.8652 244 l 1
121.911 423 m 1
 512.911 423 l 1
 498.245 354 l 1
 107.245 354 l 1
 121.911 423 l 1
EndSplineSet
EndChar
StartChar: greater
Encoding: 30 62 30
Width: 418
Flags: W
VStem: 47.126 407.767<10 310>
Fore
144.126 10 m 1
 47.126 10 l 1
 358.68 309 l 1
 173.172 603 l 1
 270.172 603 l 1
 454.893 310 l 1
 144.126 10 l 1
EndSplineSet
EndChar
StartChar: question
Encoding: 31 63 31
Width: 481
Flags: W
HStem: -6.5 105<229.262 282.293> 662 69<272.214 475.886>
VStem: 202.096 107.364<35.0574 56.9561 35.0574 56.9561> 495.177 78.7207<536.877 644.191>
Back
129.27 533.76 m 0
 129.27 585.552 182.513 629.67 248.115 629.67 c 4
 313.718 629.67 366.96 585.552 366.96 533.76 c 0
 366.96 481.969 313.718 439.935 248.115 439.935 c 0
 182.513 439.935 129.27 481.969 129.27 533.76 c 0
25.0195 533.76 m 0
 25.0195 641.946 124.032 729.75 246.03 729.75 c 0
 368.027 729.75 467.04 641.946 467.04 533.76 c 0
 467.04 425.573 368.027 337.77 246.03 337.77 c 0
 124.032 337.77 25.0195 425.573 25.0195 533.76 c 0
EndSplineSet
Fore
337.178 269 m 1
 317.41 176 l 1
 240.41 176 l 1
 260.603 271 l 0
 283.984 381 463.446 402 491.505 534 c 1
 493.969 545.595 495.177 556.544 495.177 566.786 c 0
 495.177 626.328 454.385 662 382.714 662 c 1
 297.714 662 223.133 584 211.655 530 c 1
 143.206 542 l 1
 177.735 648 283.379 731 394.379 731 c 0
 492.614 731 573.897 680.227 573.897 580.697 c 0
 573.897 566.753 572.3 551.853 568.932 536 c 1
 537.472 388 353.545 346 337.178 269 c 1
EndSplineSet
Refer: 14 46 N 1 0 0 1 143 0 2
EndChar
StartChar: at
Encoding: 32 64 32
Width: 793
Flags: W
HStem: -17 62<204.659 483.165> 190 62<383.319 500.986> 204 63<636.321 726.253> 462 61<421.001 548.005> 668 62<307.486 735.893>
VStem: 87.3545 63.2549<111.787 338.223> 298.141 64.2266<270.588 362.349> 568.021 62.7168<352.159 436.81> 787.441 64.5654<391.68 592.927>
Back
534.906 356.863 m 4
 534.906 402.268 571.756 439.116 617.16 439.116 c 4
 662.564 439.116 699.413 402.268 699.413 356.863 c 4
 699.413 311.459 662.564 274.61 617.16 274.61 c 4
 571.756 274.61 534.906 311.459 534.906 356.863 c 4
473.295 356.535 m 0
 473.295 435.948 537.746 500.4 617.16 500.4 c 0
 696.573 500.4 761.025 435.948 761.025 356.535 c 0
 761.025 277.121 696.573 212.67 617.16 212.67 c 0
 537.746 212.67 473.295 277.121 473.295 356.535 c 0
283.977 356.765 m 0
 283.977 413.998 331.035 461.056 388.269 461.056 c 0
 445.502 461.056 492.561 413.998 492.561 356.765 c 0
 492.561 299.531 445.502 252.473 388.269 252.473 c 0
 331.035 252.473 283.977 299.531 283.977 356.765 c 0
76.9365 356.603 m 0
 76.9365 528.693 215.72 667.477 387.81 667.477 c 0
 559.9 667.477 698.684 528.693 698.684 356.603 c 0
 698.684 184.512 559.9 45.7295 387.81 45.7295 c 0
 215.72 45.7295 76.9365 184.512 76.9365 356.603 c 0
14.5947 356.535 m 0
 14.5947 562.95 181.395 729.75 387.81 729.75 c 0
 594.225 729.75 761.025 562.95 761.025 356.535 c 0
 761.025 150.12 594.225 -16.6797 387.81 -16.6797 c 0
 181.395 -16.6797 14.5947 150.12 14.5947 356.535 c 0
221.01 356.535 m 0
 221.01 448.275 296.07 523.335 387.81 523.335 c 0
 479.55 523.335 554.61 448.275 554.61 356.535 c 0
 554.61 264.795 479.55 189.735 387.81 189.735 c 0
 296.07 189.735 221.01 264.795 221.01 356.535 c 0
EndSplineSet
Fore
596.104 104 m 1xbf80
 623.479 54 l 17
 551.913 9 471.387 -17 389.387 -17 c 0
 209.479 -17 87.3545 109.147 87.3545 278.062 c 0
 87.3545 303.501 90.124 329.908 95.8828 357 c 0
 139.669 563 341.166 730 548.166 730 c 0
 729.715 730 852.007 601.075 852.007 445.877 c 0
 852.007 424.978 849.788 403.602 845.195 382 c 0
 823.516 280 728.361 204 670.36 204 c 0xbf80
 634.36 204 595.825 225 575.775 253 c 1
 538.487 214 485.386 190 433.386 190 c 0xdf80
 353.275 190 298.142 246.868 298.141 322.31 c 0
 298.141 333.506 299.355 345.111 301.883 357 c 0
 321.227 448 412.167 523 504.167 523 c 0
 583.271 523 630.737 464.597 630.737 392.922 c 0
 630.737 381.236 629.475 369.196 626.883 357 c 0
 625.583 350.887 624.956 344.647 624.956 338.446 c 0
 624.956 302.044 646.574 267 680.753 267 c 0
 715.753 267 769.02 320 782.195 382 c 0
 785.725 398.599 787.441 415.226 787.441 431.646 c 0
 787.441 555.709 689.53 668 534.986 668 c 0
 359.986 668 193.167 523 157.458 355 c 0
 152.84 333.276 150.61 311.958 150.609 291.308 c 0
 150.609 153.215 250.33 45 402.565 45 c 0
 464.565 45 542.092 71 596.104 104 c 1xbf80
364.883 357 m 0
 363.181 348.993 362.367 341.281 362.367 333.92 c 0
 362.367 285.203 397.914 252 446.564 252 c 0xdf80
 506.564 252 553.767 300 565.883 357 c 0
 567.33 363.81 568.021 370.572 568.021 377.191 c 0
 568.021 423.052 534.896 462 491.201 462 c 0
 437.201 462 377.211 415 364.883 357 c 0
EndSplineSet
EndChar
StartChar: m
Encoding: 77 109 33
Width: 749
Flags: W
HStem: 0 21G<63 137 343 417 623 697> 468 67<561.45 698.619> 471 67<277.255 420.049>
VStem: 422.637 73.636<404.687 460.343> 702.151 75.6606<364.448 459.173>
Back
137 0 m 9
 63 0 l 1
 63 524 l 1
 137 524 l 1
 137 425 l 17
 164 479 189 538 260 538 c 0
 357 538 416.999 480 416.999 321 c 1
 417 0 l 1
 343 0 l 0
 342.999 321 l 1
 342.999 428 326 471 260.001 471 c 0
 184 471 137 386 137 302 c 0
 137 0 l 9
70 720 m 25
 70 -26 l 25
210 716 m 25
 210 -30 l 25
140 -34 m 25
 140 712 l 25
 140 -34 l 25
280 718 m 25
 280 -28 l 25
350 716 m 25
 350 -30 l 25
420 -24 m 25
 420 722 l 25
 420 -24 l 25
EndSplineSet
Fore
417 0 m 1xd8
 343 0 l 0
 411.229 321 l 1
 418.223 353.901 422.637 382.004 422.637 404.687 c 0
 422.637 447.499 406.911 471 363.115 471 c 0
 282.114 471 218.196 382 200.342 298 c 0
 137 0 l 9
 63 0 l 1
 174.38 524 l 1
 248.38 524 l 1
 227.549 426 l 17
 260.965 475 300.355 538 377.355 538 c 0xb8
 459.355 538 495.877 484 496.273 420 c 1
 537.327 472 583.896 535 658.718 535 c 0
 748.036 535 777.812 491.283 777.812 419.877 c 0
 777.812 390.551 772.789 356.556 764.807 319 c 1
 697 0 l 1
 623 0 l 0
 690.807 319 l 1
 697.939 352.553 702.151 380.478 702.151 402.736 c 0
 702.151 446.149 686.125 468 644.478 468 c 0
 577.477 468 503.298 406 485.443 322 c 0
 417 0 l 1xd8
EndSplineSet
EndChar
StartChar: n
Encoding: 78 110 34
Width: 500
Flags: W
HStem: 0 21G<63 137 393 467> 471 67<307.055 452.575>
VStem: 468.412 75.2265<340.184 463.429>
Back
137 0 m 13
 63 0 l 5
 63 524 l 5
 137 524 l 5
 137 436 l 21
 153 474 207 538 270 538 c 4
 368.904 538 467.006 440.547 466.999 322 c 5
 467 0 l 5
 393 0 l 4
 393 323 l 6
 393 415.327 328.576 471 269 471 c 4
 199 471 136.999 394 136.999 302 c 4
 137 0 l 13
490 -24 m 25
 490 722 l 25
 490 -24 l 25
70 720 m 25
 70 -26 l 25
210 716 m 25
 210 -30 l 25
140 -34 m 25
 140 712 l 25
 140 -34 l 25
280 718 m 25
 280 -28 l 25
350 716 m 25
 350 -30 l 25
420 -24 m 25
 420 722 l 25
 420 -24 l 25
EndSplineSet
Fore
137 0 m 9
 63 0 l 1
 174.38 524 l 1
 248.38 524 l 1
 227.337 425 l 17
 265.814 479 328.355 538 399.355 538 c 0
 479.88 538 543.639 498.029 543.639 393.487 c 0
 543.639 372.098 540.97 348.006 535.229 321 c 1
 467 0 l 1
 393 0 l 0
 461.229 321 l 1
 466.091 343.871 468.412 363.818 468.412 381.047 c 0
 468.412 444.418 437.007 471 385.115 471 c 0
 309.114 471 219.047 386 201.192 302 c 0
 137 0 l 9
EndSplineSet
EndChar
StartChar: o
Encoding: 79 111 35
Width: 515
Flags: W
HStem: -14 66<185.915 396.253> 468 66<248.078 451.077>
VStem: 96.6791 77.207<96.3831 240.493> 463.375 77.2292<283.294 425.127>
Back
490 -24 m 29
 490 722 l 29
 490 -24 l 29
70 720 m 25
 70 -26 l 25
210 716 m 25
 210 -30 l 25
140 -34 m 25
 140 712 l 25
 140 -34 l 25
280 718 m 25
 280 -28 l 25
350 716 m 25
 350 -30 l 25
420 -24 m 25
 420 722 l 25
 420 -24 l 25
EndSplineSet
Fore
105.688 262 m 0
 138.424 416 246.505 534 376.505 534 c 0
 483.138 534 540.604 454.463 540.604 342.448 c 0
 540.604 317.112 537.664 290.115 531.688 262 c 0
 498.956 108 390.024 -14 260.024 -14 c 0
 153.758 -14 96.6791 67.6003 96.6791 180.459 c 0
 96.6791 206.211 99.651 233.591 105.688 262 c 0
180.688 262 m 0
 176.173 240.751 173.886 219.166 173.886 198.324 c 0
 173.886 119.908 206.254 52 274.053 52 c 0
 368.053 52 436.284 166 456.688 262 c 0
 461.13 282.893 463.375 303.985 463.375 324.294 c 0
 463.375 401.858 430.631 468 362.478 468 c 0
 274.478 468 201.097 358 180.688 262 c 0
EndSplineSet
KernsSLIFO: 44 -26 0 0
EndChar
StartChar: p
Encoding: 80 112 36
Width: 510
Flags: HW
HStem: -14.0117 66.0117<210.501 378.553> 467 66<310.764 455.478>
VStem: 464.45 76.8394<286.876 427.386>
Back
137 0 m 13
 63 0 l 5
 63 524 l 5
 137 524 l 5
 137 425 l 21
 164 479 214 538 285 538 c 4
 382 538 466.999 480 466.999 321 c 5
 467 0 l 5
 393 0 l 4
 392.999 321 l 5
 392.999 428 351 471 285.001 471 c 4
 209 471 137 386 137 302 c 4
 137 0 l 13
70 720 m 25
 70 -26 l 25
210 716 m 25
 210 -30 l 25
140 -34 m 25
 140 712 l 25
 140 -34 l 25
280 718 m 25
 280 -28 l 25
350 716 m 25
 350 -30 l 25
420 -24 m 25
 420 722 l 25
 420 -24 l 25
EndSplineSet
Fore
248.38 524 m 9
 225.637 417 l 1
 263.053 466 329.293 533 396.293 533 c 0
 495.03 533 541.289 452.04 541.289 348.179 c 0
 541.289 321.007 538.123 292.267 531.902 263 c 0
 502.568 125 404.024 -14 281.024 -14 c 1
 280.374 -14.0078 279.725 -14.0117 279.082 -14.0117 c 0
 209.363 -14.0117 178.104 53.5264 158.256 100 c 9
 92.5752 -209 l 1
 18.5752 -209 l 1
 174.38 524 l 1
 248.38 524 l 9
456.902 263 m 0
 461.886 286.449 464.45 310.364 464.45 333.177 c 0
 464.45 405.645 438.583 467 382.264 467 c 0
 327.264 467 220.873 404 190.688 262 c 0
 186.485 242.219 184.503 222.998 184.503 204.734 c 0
 184.503 117.426 229.782 52 294.053 52 c 0
 359.053 52 432.671 149 456.902 263 c 0
EndSplineSet
EndChar
StartChar: q
Encoding: 81 113 37
Width: 512
Flags: W
HStem: -219 66<441.14 486.479> -14 66<183.609 326.153> 467 66<257.664 414.148>
VStem: 95.0029 75.4962<87.0239 241.144> 361.552 76.2093<-149.634 -97.127>
Back
128 263 m 4
 128 157.665 174.137 52 249.001 52 c 4
 305.001 52 394 124 394 263 c 4
 394 380.397 318.15 467 247 467 c 4
 179 467 128 377 128 263 c 4
392 79 m 5
 373.146 51.2139 325.579 -14.0117 250.73 -14.0117 c 4
 250.155 -14.0117 249.579 -14.0078 248.999 -14 c 5
 248.561 -14.0029 248.123 -14.0049 247.687 -14.0049 c 4
 115.972 -14.0049 53 136.367 53 265 c 4
 53 403 122 534 247 534 c 4
 312 534 365.001 486 392.001 437 c 13
 392 524 l 5
 466 524 l 5
 466 -9 l 6
 466 -142 367 -219 268 -219 c 4
 143.102 -219 73.5439 -123.463 65 -53 c 5
 134.999 -53 l 21
 144.182 -111.973 206.116 -153 264 -153 c 4
 325 -153 392 -110 392 -16 c 4
 392 79 l 5
70 720 m 25
 70 -26 l 25
210 716 m 25
 210 -30 l 25
140 -34 m 25
 140 712 l 25
 140 -34 l 25
280 718 m 25
 280 -28 l 25
350 716 m 25
 350 -30 l 25
420 -24 m 25
 420 722 l 25
 420 -24 l 25
EndSplineSet
Fore
178.688 262 m 0
 173.18 236.086 170.499 210.826 170.499 187.327 c 0
 170.499 110.171 199.404 52 252.053 52 c 0
 309.053 52 414.719 121 444.688 262 c 0
 449.078 282.649 451.092 301.97 451.092 319.856 c 0
 451.092 412.839 396.636 467 338.264 467 c 0
 276.264 467 204.408 383 178.688 262 c 0
440.382 -97 m 2
 438.676 -105.026 437.762 -112.111 437.762 -118.304 c 0
 437.762 -142.404 451.602 -153 486.479 -153 c 1
 472.45 -219 l 1
 401.842 -219 361.552 -194.719 361.552 -136.091 c 0
 361.552 -125.255 362.929 -113.246 365.744 -100 c 2
 406.13 90 l 1
 379.116 57 314.024 -14 239.024 -14 c 0
 137.898 -14 95.0029 76.4489 95.0029 179.329 c 0
 95.0029 207.158 98.1415 235.896 104.115 264 c 0
 133.447 402 229.293 533 351.293 533 c 0
 426.293 533 458.178 476 478.187 429 c 9
 498.38 524 l 1
 572.38 524 l 1
 440.382 -97 l 2
EndSplineSet
KernsSLIFO: 129 134 0 0
EndChar
StartChar: r
Encoding: 82 114 38
Width: 335
Flags: W
HStem: 0 21G<63 137> 470 67<307.843 395>
VStem: 63 389.404<0 510>
Back
70 720 m 29
 70 -26 l 29
210 716 m 29
 210 -30 l 29
140 -34 m 29
 140 712 l 29
 140 -34 l 29
280 718 m 29
 280 -28 l 29
350 716 m 29
 350 -30 l 29
420 -24 m 29
 420 722 l 29
 420 -24 l 29
EndSplineSet
Fore
407.65 450 m 1
 398.14 457 386.9 470 359.9 470 c 1
 302.9 470 215.858 371 197.366 284 c 0
 197.366 284 160.543 110.76 137 0 c 17
 63 0 l 1
 174.38 524 l 1
 248.38 524 l 1
 226.273 420 l 17
 251.927 456 323.143 537 374.143 537 c 0
 408.143 537 431.592 525 452.404 510 c 1
 407.65 450 l 1
EndSplineSet
KernsSLIFO: 124 -20 0 0
EndChar
StartChar: s
Encoding: 83 115 39
Width: 450
Flags: W
HStem: -14 66<156.853 325.853> 470 66<267.5 409.2>
VStem: 138.553 76.9984<314.442 396.291> 367.498 76.804<140.765 218.761>
Back
53 394 m 4
 53 472.384 129.608 536 224 536 c 4
 318.392 536 395 472.384 395 394 c 4
 395 315.616 318.392 252 224 252 c 4
 129.608 252 53 315.616 53 394 c 4
129 392 m 0
 129 435.056 172.456 470 226 470 c 0
 279.544 470 323 435.056 323 392 c 0
 323 348.944 279.544 314 226 314 c 0
 172.456 314 129 348.944 129 392 c 0
51 145 m 0
 51 232.216 130.296 303 228 303 c 0
 325.704 303 405 232.216 405 145 c 0
 405 57.784 325.704 -13 228 -13 c 0
 130.296 -13 51 57.784 51 145 c 0
125 147 m 0
 125 199.44 170.696 242 227 242 c 0
 283.304 242 329 199.44 329 147 c 0
 329 94.56 283.304 52 227 52 c 0
 170.696 52 125 94.56 125 147 c 0
70 720 m 25
 70 -26 l 25
210 716 m 25
 210 -30 l 25
140 -34 m 25
 140 712 l 25
 140 -34 l 25
280 718 m 25
 280 -28 l 25
350 716 m 25
 350 -30 l 25
420 -24 m 25
 420 722 l 25
 420 -24 l 25
EndSplineSet
Fore
279.801 239 m 0
 212.796 262.543 138.553 284.704 138.553 360.372 c 0
 138.553 369.447 139.621 379.291 141.897 390 c 0
 161.027 480 251.718 535 342.932 536 c 0
 343.887 536.01 344.838 536.016 345.786 536.016 c 0
 445.765 536.016 486.752 474 492.338 425.441 c 0
 492.337 425 l 1
 420.359 411 l 0
 414.312 439 390.9 470 329.9 470 c 0
 281.9 470 226.888 437 217.322 392 c 0
 216.113 386.311 215.552 381.087 215.552 376.281 c 0
 215.552 328.713 270.539 322.159 296.317 312 c 0
 352.773 289.751 444.302 263.757 444.302 176.176 c 0
 444.302 166.553 443.197 156.187 440.819 145 c 0
 421.477 54 324.024 -14 228.024 -14 c 0
 124.024 -14 78.0771 38 69.5312 106 c 1
 141.294 119 l 1
 150.792 79 176.053 52 240.053 52 c 0
 306.053 52 356.467 101 365.819 145 c 0
 366.961 150.369 367.498 155.431 367.498 160.207 c 0
 367.498 205.249 319.71 224.979 279.801 239 c 0
EndSplineSet
EndChar
StartChar: t
Encoding: 84 116 40
Width: 340
Flags: W
HStem: -14 62<219.919 281.024> 458 66<161.38 216.351 304.38 386.351>
VStem: 135.786 77.424<52.9467 100.702>
Back
70 720 m 29
 70 -26 l 29
210 716 m 29
 210 -30 l 29
140 -34 m 29
 140 712 l 29
 140 -34 l 29
280 718 m 29
 280 -28 l 29
350 716 m 29
 350 -30 l 29
420 -24 m 29
 420 722 l 29
 420 -24 l 29
EndSplineSet
Fore
216.351 458 m 0
 147.351 458 l 1
 161.38 524 l 1
 230.38 524 l 0
 256.312 646 l 1
 330.312 646 l 0
 304.38 524 l 0
 400.38 524 l 1
 386.351 458 l 1
 290.351 458 l 0
 215.318 105 l 2
 213.91 98.3735 213.21 92.3344 213.21 86.8777 c 0
 213.21 60.7769 229.216 48 260.203 48 c 2
 294.203 48 l 1
 281.024 -14 l 1
 247.024 -14 l 2
 167.875 -14 135.786 8.5212 135.786 61.0038 c 0
 135.786 73.3204 137.554 87.2871 140.895 103 c 1
 216.351 458 l 0
EndSplineSet
EndChar
StartChar: u
Encoding: 85 117 41
Width: 520
Flags: W
HStem: -14 67<201.08 333.924> 504 20G<169.38 243.38 499.38 573.38>
VStem: 96.1308 74.4124<72.8239 202.42>
Back
70 720 m 29
 70 -26 l 29
210 716 m 29
 210 -30 l 29
140 -34 m 29
 140 712 l 29
 140 -34 l 29
280 718 m 29
 280 -28 l 29
350 716 m 29
 350 -30 l 29
420 -24 m 29
 420 722 l 29
 420 -24 l 29
EndSplineSet
Fore
499.38 524 m 9
 573.38 524 l 1
 462 0 l 1
 388 0 l 1
 406.705 88 l 17
 382.628 50 315.024 -14 252.024 -14 c 0
 165.925 -14 96.1308 59.8533 96.1308 157.184 c 0
 96.1308 171.659 97.6744 186.653 100.938 202 c 1
 169.38 524 l 1
 243.38 524 l 0
 174.724 201 l 2
 171.87 187.573 170.543 174.922 170.543 163.104 c 0
 170.543 93.6577 216.353 53 267.266 53 c 0
 337.266 53 415.634 130 435.188 222 c 0
 499.38 524 l 9
EndSplineSet
EndChar
StartChar: v
Encoding: 86 118 42
Width: 500
Flags: W
HStem: 0 21G<218 292> 504 20G<151.38 229.38 506.38 583.38>
Back
70 720 m 29
 70 -26 l 29
210 716 m 29
 210 -30 l 29
140 -34 m 29
 140 712 l 29
 140 -34 l 29
280 718 m 29
 280 -28 l 29
350 716 m 29
 350 -30 l 29
420 -24 m 29
 420 722 l 29
 420 -24 l 29
EndSplineSet
Fore
218 0 m 1
 151.38 524 l 1
 229.38 524 l 1
 275.193 95 l 1
 506.38 524 l 1
 583.38 524 l 1
 292 0 l 1
 218 0 l 1
EndSplineSet
EndChar
StartChar: w
Encoding: 87 119 43
Width: 671
Flags: W
HStem: 0 21G<173 230 449 509> 504 20G<144.38 219.38 685.38 760.38>
VStem: 144.38 75<469.074 524>
Back
70 720 m 29
 70 -26 l 29
210 716 m 29
 210 -30 l 29
140 -34 m 29
 140 712 l 29
 140 -34 l 29
280 718 m 29
 280 -28 l 29
350 716 m 29
 350 -30 l 29
420 -24 m 29
 420 722 l 29
 420 -24 l 29
EndSplineSet
Fore
430.486 421 m 1
 230 0 l 1
 173 0 l 1
 144.38 524 l 1
 219.38 524 l 1
 227.932 122 l 1
 414.529 520 l 0
 414.529 520 459.67 520 488.529 520 c 17
 505.932 122 l 1
 685.38 524 l 17
 760.38 524 l 1
 509 0 l 1
 449 0 l 1
 430.486 421 l 1
EndSplineSet
EndChar
StartChar: x
Encoding: 88 120 44
Width: 440
Flags: W
HStem: 0 21G<26 112 342 425> 504 20G<138.38 221.38 449.38 532.38>
Back
70 720 m 29
 70 -26 l 29
210 716 m 29
 210 -30 l 29
140 -34 m 29
 140 712 l 29
 140 -34 l 29
280 718 m 29
 280 -28 l 29
350 716 m 29
 350 -30 l 29
420 -24 m 29
 420 722 l 29
 420 -24 l 29
EndSplineSet
Fore
425 0 m 1
 342 0 l 9
 269.698 215 l 1
 112 0 l 1
 26 0 l 9
 234.902 263 l 1
 138.38 524 l 9
 170.75 524 221.38 524 221.38 524 c 0
 290.316 312 l 0
 449.38 524 l 1
 532.38 524 l 1
 325.326 265 l 0
 425 0 l 1
EndSplineSet
EndChar
StartChar: y
Encoding: 89 121 45
Width: 500
Flags: W
HStem: -219 66<140.879 300.779> -14 67<197.616 330.024> 504 20G<169.38 243.38 499.38 573.38>
VStem: 96.7749 74.5011<70.1593 204.903>
Back
388 524 m 13
 462 524 l 5
 462 0 l 5
 388 0 l 5
 388 88 l 21
 372 50 318 -14 255 -14 c 4
 156.096 -14 57.9941 83.4531 58.001 202 c 5
 58 524 l 5
 132 524 l 4
 132 201 l 6
 132 108.673 196.424 53 256 53 c 4
 326 53 388.001 130 388.001 222 c 4
 388 524 l 13
70 720 m 25
 70 -26 l 25
210 716 m 25
 210 -30 l 25
140 -34 m 25
 140 712 l 25
 140 -34 l 25
280 718 m 25
 280 -28 l 25
350 716 m 25
 350 -30 l 25
420 -24 m 25
 420 722 l 25
 420 -24 l 25
EndSplineSet
Fore
47.9316 -134.483 m 0
 108.734 -92.5859 l 0
 127.854 -123 159.479 -153 221.479 -153 c 0
 282.479 -153 364.619 -110 384.599 -16 c 0
 384.599 -16 397.825 46.2197 406.281 86 c 17
 379.99 47 312.024 -14 252.024 -14 c 0
 171.512 -14 96.7749 51.9544 96.7749 157.261 c 0
 96.7749 173.593 98.5728 190.873 102.426 209 c 1
 169.38 524 l 1
 243.38 524 l 0
 176.426 209 l 1
 172.915 192.486 171.276 177.195 171.276 163.169 c 0
 171.276 91.6231 213.92 53 268.266 53 c 0
 331.266 53 414.145 123 434.763 220 c 0
 499.38 524 l 9
 573.38 524 l 1
 460.087 -9 l 2
 431.817 -142 306.45 -219 207.45 -219 c 1
 119.45 -219 74.0156 -174 47.9316 -134.483 c 0
EndSplineSet
KernsSLIFO: 129 57 0 0
EndChar
StartChar: z
Encoding: 90 122 46
Width: 470
Flags: W
HStem: 0 69<181.666 428> 455 69<175.38 416.713>
Back
70 720 m 29
 70 -26 l 29
210 716 m 29
 210 -30 l 29
140 -34 m 29
 140 712 l 29
 140 -34 l 29
280 718 m 29
 280 -28 l 29
350 716 m 29
 350 -30 l 29
420 -24 m 29
 420 722 l 29
 420 -24 l 29
EndSplineSet
Fore
181.666 69 m 1
 442.666 69 l 1
 428 0 l 1
 44 0 l 1
 416.713 455 l 2
 160.713 455 l 1
 175.38 524 l 1
 554.38 524 l 1
 181.666 69 l 1
EndSplineSet
EndChar
StartChar: Oslash
Encoding: 151 216 53
Width: 1180
Flags: W
HStem: -14 67.9805<281.782 526.474> 653.44 67.9795<262.593 499.94>
VStem: 110.253 73.1865<183.125 309.245> 605.854 73.2949<392.857 522.878>
Fore
199.567 19.9619 m 1
 177.024 -14 l 1
 103.024 -14 l 1
 155.837 65.5693 l 1
 123.487 113.959 110.253 178.849 110.253 244.118 c 0
 110.253 280.426 114.349 316.852 121.525 350.62 c 1
 154.365 505.12 272.343 721.42 473.343 721.42 c 1
 514.174 721.42 547.702 712.494 574.935 696.974 c 1
 597.312 730.69 l 0
 671.312 730.69 l 1
 622.215 656.72 l 1
 663.068 606.606 679.148 533.616 679.148 460.542 c 0
 679.148 422.884 674.877 385.204 667.525 350.62 c 1
 634.687 196.12 517.024 -14 317.024 -14 c 1
 267.999 -14 229.409 -1.375 199.567 19.9619 c 1
241.482 83.1133 m 1
 263.755 64.8164 293.249 53.9805 331.474 53.9805 c 1
 481.474 53.9805 565.941 220.84 593.525 350.62 c 0
 600.99 385.735 605.854 424.019 605.854 461.183 c 0
 605.854 508.641 597.93 554.271 577.373 589.162 c 1
 241.482 83.1133 l 1
202.641 136.078 m 1
 533.5 634.549 l 1
 513.586 646.573 488.974 653.44 458.893 653.44 c 0
 307.893 653.44 223.112 480.4 195.525 350.62 c 1
 188.191 316.106 183.44 278.971 183.439 243.048 c 0
 183.44 204.393 188.94 167.144 202.641 136.078 c 1
EndSplineSet
EndChar
StartChar: Thorn
Encoding: 157 222 57
Width: 649
Flags: W
HStem: 0 21G<71 147.8> 164.32 68.6396<182.729 369.021> 492.96 68.6396<252.582 382.586> 691 20G<222.128 298.929>
VStem: 504.8 78.6992<363.629 510.442>
Fore
197.317 232.96 m 1
 329.397 232.96 479.645 258.96 502.414 366.08 c 1
 504.029 373.681 504.801 380.832 504.8 387.559 c 0
 504.8 482.084 352.585 492.96 252.582 492.96 c 1
 197.317 232.96 l 1
222.128 711 m 0
 298.929 711 l 1
 267.172 561.6 l 1
 434.111 561.6 583.499 527.861 583.499 404.365 c 0
 583.499 392.455 582.109 379.71 579.213 366.08 c 0
 543.621 198.64 362.647 164.32 182.729 164.32 c 1
 147.8 0 l 1
 71 0 l 1
 222.128 711 l 0
EndSplineSet
EndChar
StartChar: germandbls
Encoding: 158 223 58
Width: 592
Flags: W
HStem: -14.4199 67.9795<290.957 434.23> 331.66 69.0098<315.37 438.075> 655.08 66.9502<329.307 557.16>
VStem: 515.062 73.293<178.937 304.326> 579.919 75.0518<530.361 645.354>
Fore
204.707 562.38 m 1xe8
 256.374 651 348.791 722.03 473.422 722.03 c 1
 577.973 722.03 654.97 667.917 654.971 573.458 c 0xe8
 654.971 558.108 652.937 541.692 648.657 524.27 c 1
 628.517 429.51 520.218 380.07 458.224 364.62 c 1
 505.437 352.641 588.354 307.172 588.355 218.002 c 0
 588.355 207.503 587.206 196.398 584.713 184.67 c 1
 552.899 35 437.395 -14.4199 295.255 -14.4199 c 1
 263.325 -14.4199 239.545 -5.15039 210.088 11.3301 c 9
 267.076 71.0703 l 17
 282.243 64.8896 295.283 53.5596 309.703 53.5596 c 1
 405.493 53.5596 489.847 77 512.731 184.67 c 1
 514.309 192.089 515.063 199.308 515.062 206.307 c 0xf0
 515.063 281.706 427.63 331.66 339.977 331.66 c 1
 332.768 331.66 327.615 331.66 322.468 331.66 c 0
 316.285 331.66 310.105 331.66 301.21 328.57 c 1
 316.973 402.73 l 1
 323.745 400.67 328.894 400.67 334.045 400.67 c 0
 340.225 400.67 346.405 400.67 354.646 400.67 c 1
 438.075 400.67 559.446 448.05 575.647 524.27 c 1
 578.523 537.797 579.919 550.201 579.919 561.514 c 0
 579.919 626.006 534.552 655.08 459.19 655.08 c 1
 359.28 655.08 306.811 606 268.781 539.72 c 1
 209.824 432 158.435 151.41 116.98 0 c 1
 45 0 l 1
 97.8877 176.13 145.288 453 204.707 562.38 c 1xe8
EndSplineSet
EndChar
StartChar: ae
Encoding: 165 230 63
Width: 726
Flags: W
HStem: -14 66<149.823 304.653 419.481 559.874> 229 66<445.068 659.048> 294 66<179.29 341.404> 468 66<254.253 385.082 511.485 665.028>
VStem: 72.1807 74.7822<73.1182 169.091> 351.55 71.7607<158.854 214.227> 663.096 77.125<306.567 437.155>
Back
414.656 295 m 5
 673.344 295 l 5
 664.672 381.516 622.031 468 544 468 c 4
 465.969 468 423.328 381.516 414.656 295 c 5
414.641 229 m 5
 423.281 141.719 465.938 52 544 52 c 4
 590.016 52 622.375 79.3281 643.422 118.484 c 4
 708.344 91.6094 l 4
 674.984 27.0625 619.422 -14 544 -14 c 5
 414 -14 343 108 343 262 c 4
 343 416 414 534 544 534 c 4
 674 534 745 416 745 262 c 4
 745 251.24 744.458 240.156 743.469 229 c 5
 414.641 229 l 5
228 294 m 4
 154 294 108 236 108 173 c 4
 108 110 154 52 228 52 c 4
 290 52 348 108 348 173 c 5
 348 238 290 294 228 294 c 4
228 360 m 4
 296 360 336 332 350 308 c 5
 349.439 330 l 4
 349.439 405 304 466 230 466 c 4
 184 466 142 450 120 428 c 13
 105.18 447.5 82 478 82 478 c 4
 116 506 160 532 230 532 c 4
 326.845 532 415.868 461 415.868 330 c 4
 415 270 l 4
 416 132 l 5
 416 96 430 56 472 56 c 5
 472 -10 l 5
 412 -10 373 4 364 49 c 5
 350 26 308 -14 228 -14 c 5
 118 -14 38 68 38 173 c 4
 38 278 128 360 228 360 c 4
EndSplineSet
Fore
275.49 294 m 0xbe
 201.49 294 165.163 236 151.772 173 c 0
 148.714 158.612 146.963 144.485 146.963 131.25 c 0
 146.962 86.5332 166.953 52 224.053 52 c 0
 286.053 52 333.956 108 347.772 173 c 1
 350.29 184.844 351.55 196.389 351.55 207.351 c 0
 351.549 256.548 326.193 294 275.49 294 c 0xbe
446.574 444.129 m 1
 492.315 499.773 532.489 534 602.505 534 c 0
 700.174 534 740.221 467.394 740.221 368.955 c 0
 740.221 336.371 735.83 300.298 727.688 262 c 0
 725.401 251.234 721.516 240.156 719.146 229 c 1
 430.974 229 l 1xde
 427.5 212.664 423.311 186.3 423.311 158.854 c 0
 423.31 107.335 438.074 52 500.053 52 c 0
 546.069 52 564.235 79.3281 593.606 118.484 c 0
 652.816 91.6094 l 0
 605.735 27.0625 561.446 -14 486.024 -14 c 0
 407.868 -14 390.768 27.0371 368.005 80 c 1
 332.227 34 304.024 -14 210.024 -14 c 0
 118.409 -14 72.1807 42.8799 72.1807 122.555 c 0
 72.1807 138.544 74.042 155.451 77.7725 173 c 0
 100.091 278 189.521 360 289.521 360 c 0
 351.743 360 365.632 337 378.68 309 c 1
 381.312 317.082 381.104 330.206 384.105 337.988 c 1
 387.655 354.69 389.614 370.591 389.614 385.151 c 0
 389.614 432.744 368.69 466 314.053 466 c 0
 268.053 466 242.65 450 215.976 428 c 9
 205.299 447.5 188.602 478 188.602 478 c 0
 228.554 506 258.08 532 328.08 532 c 0
 391.359 532 424.86 501.688 446.574 444.129 c 1
445.068 295 m 1
 659.048 295 l 1
 661.433 316.228 663.096 337.454 663.096 357.401 c 0
 663.096 418.75 647.362 468 588.478 468 c 0
 508.478 468 462.435 369 445.068 295 c 1
EndSplineSet
EndChar
StartChar: igrave
Encoding: 171 236 68
Width: 209
Flags: W
HStem: 0 21G<73 147> 504 20G<184.38 258.38> 564.87 208.292<165.169 227.369>
VStem: 73 185.38<0 524> 118.846 143.244<597.562 729.549>
Fore
184.38 524 m 1xf0
 258.38 524 l 1
 147 0 l 1
 73 0 l 1
 184.38 524 l 1xf0
EndSplineSet
Refer: 119 96 N 1 0 0 1 -82.5121 7 2
EndChar
StartChar: iacute
Encoding: 172 237 69
Width: 206
Flags: W
HStem: 0 21G<73 147> 504 20G<184.38 258.38> 557.911 209.035<231.702 381.125>
VStem: 73 185.38<0 524> 208.09 203.505<579.794 737.182>
Fore
184.38 524 m 1xf0
 258.38 524 l 1
 147 0 l 1
 73 0 l 1
 184.38 524 l 1xf0
EndSplineSet
Refer: 153 180 N 1 0 0 1 36.1498 -4 2
EndChar
StartChar: icircumflex
Encoding: 173 238 70
Width: 434
Flags: W
HStem: 0 21G<191 265> 504 20G<302.38 376.38> 546 168<342.766 508.056>
VStem: 172.269 335.787<546 547> 191 185.38<0 524>
Fore
302.38 524 m 1xe8
 376.38 524 l 1
 265 0 l 1
 191 0 l 1
 302.38 524 l 1xe8
EndSplineSet
Refer: 117 94 N 1 0 0 1 -12.1883 -15 2
EndChar
StartChar: idieresis
Encoding: 174 239 71
Width: 326
Flags: W
HStem: 0 21G<133 207> 504 20G<244.38 318.38> 573 92<158.638 204.082 388.85 434.295>
VStem: 133 185.38<0 524> 134.365 324.201<608.738 628.262 608.738 628.262>
Fore
244.38 524 m 1xf0
 318.38 524 l 1
 207 0 l 1
 133 0 l 1
 244.38 524 l 1xf0
EndSplineSet
Refer: 144 168 N 1 0 0 1 11.6369 210 2
EndChar
StartChar: eth
Encoding: 175 240 72
Width: 503
Flags: W
HStem: -14 66<196.779 348.553> 386 66<225.047 387.819> 638 72<223.611 263.771> 642 69<220.657 333.503>
VStem: 79.2578 76.7686<68.7359 204.743> 454.979 77.4717<381.595 491.907>
Fore
161.188 222 m 0xcc
 157.633 205.277 156.027 189.78 156.026 175.514 c 0
 156.026 93.377 209.304 52 251.053 52 c 0
 326.053 52 407.906 136 426.188 222 c 1
 428.561 233.166 429.677 243.994 429.678 254.406 c 0
 429.678 331.643 368.256 386 303.047 386 c 1
 243.047 386 176.704 295 161.188 222 c 0xcc
467.909 630 m 1
 495.765 587.952 532.45 504.484 532.45 424.595 c 0
 532.45 413.281 531.712 402.041 530.108 391 c 1
 523.001 341.819 519.458 306.46 505.076 245 c 1
 472.98 94 357.065 -14 242.024 -14 c 0
 124.18 -14 79.2578 57.6436 79.2578 149.943 c 0
 79.2578 173.561 82.1992 198.532 87.6123 224 c 0
 114.395 350 217.074 452 322.074 452 c 0
 405.074 452 421.786 413 451.771 380 c 1
 453.948 390.24 454.979 402.32 454.979 415.473 c 0
 454.979 474.269 434.453 554.495 403.983 588 c 1
 314.104 518 l 1
 276.52 567 l 1
 355.909 630 l 1
 331.822 639 306.461 642 280.461 642 c 0xdc
 261.461 642 242.036 640 223.611 638 c 1
 231.915 710 l 1xec
 245.128 711 259.128 711 272.128 711 c 0xdc
 327.128 711 379.429 703 424.899 677 c 1
 515.354 745 l 1
 551.089 692 l 1
 467.909 630 l 1
EndSplineSet
EndChar
StartChar: oslash
Encoding: 183 248 79
Width: 500
Flags: W
HStem: -14 66<226.129 386.253> 468 66<238.078 390.015>
VStem: 96.209 74.6123<136.458 237.422> 446.415 74.6758<286.389 385.367>
Back
47 262 m 4
 47 416 118 534 248 534 c 4
 378 534 449 416 449 262 c 4
 449 108 378 -14 248 -14 c 5
 118 -14 47 108 47 262 c 4
117 262 m 4
 117 166 160 52 248 52 c 4
 342 52 379 166 379 262 c 4
 379 358 336 468 248 468 c 4
 160 468 117 358 117 262 c 4
EndSplineSet
Fore
443.026 376.641 m 1
 198.269 84.7656 l 1
 213.324 64.5312 234.881 52 264.053 52 c 0
 358.053 52 417.284 166 437.688 262 c 0
 442.984 286.907 446.415 312.754 446.415 337.38 c 0
 446.415 350.962 445.373 364.167 443.026 376.641 c 1
418.026 436.844 m 1
 402.865 456.156 381.353 468 352.478 468 c 0
 264.478 468 200.097 358 179.688 262 c 0
 174.329 236.782 170.821 210.326 170.821 185.02 c 0
 170.821 171.536 171.817 158.377 174.062 145.906 c 1
 418.026 436.844 l 1
39.0244 -14 m 1
 114.201 74.5312 l 1
 102.424 103.271 96.209 137.756 96.209 176.056 c 0
 96.209 203.035 99.293 231.908 105.688 262 c 0
 138.424 416 236.505 534 366.505 534 c 0
 409.958 534 444.014 520.812 468.889 497.5 c 1
 501.163 536 l 1
 576.663 536 l 1
 502.717 447.812 l 1
 514.733 419.429 521.091 385.192 521.091 346.899 c 0
 521.091 320.35 518.035 291.851 511.688 262 c 0
 478.956 108 380.024 -14 250.024 -14 c 1
 206.257 -14 172.137 -0.171875 147.342 24.0312 c 1
 115.447 -14 l 1
 39.0244 -14 l 1
EndSplineSet
EndChar
StartChar: thorn
Encoding: 189 254 83
Width: 490
Flags: W
HStem: 0 21G<63 137> 80 66<233.49 385.933> 561 66<314.973 457.213> 690 20G<213.915 287.915>
VStem: 467.371 74.9824<387.574 533.527>
Fore
137 0 m 17
 63 0 l 1
 213.915 710 l 1
 287.915 710 l 1
 252.418 543 l 17
 294.196 589 336.273 627 407.273 627 c 0
 502.124 627 542.354 549.102 542.354 450.16 c 0
 542.354 420.797 538.808 389.582 532.097 358 c 0
 502.764 220 430.005 80 272.005 80 c 1
 192.005 80 169.309 152 169.309 152 c 0
 169.309 152 149.602 59.2803 137 0 c 17
457.67 356 m 0
 464.173 386.595 467.371 415.533 467.371 441.501 c 0
 467.37 512.29 443.604 561 398.244 561 c 1
 330.244 561 237.452 482 210.67 356 c 1
 204.778 328.28 202.153 303.38 202.152 281.255 c 0
 202.153 190.043 246.77 146 291.033 146 c 0
 364.033 146 429.188 222 457.67 356 c 0
EndSplineSet
EndChar
StartChar: Euro
Encoding: 202 8364 87
Width: 532
Flags: W
HStem: 103 66<308.825 401.522> 249 66<132.955 196.488 272.732 401.927> 372 66<162.1 210.973 313.184 431.071> 518 66<367.511 496.504>
VStem: 118.927 456.389<249 519>
Fore
210.973 372 m 1
 148.071 372 l 1
 162.1 438 l 1
 236.711 438 l 1
 279.078 521.963 351.403 584 435.133 584 c 0
 513.133 584 538.882 564 575.315 519 c 9
 553.093 500.672 518.327 472 518.327 472 c 0
 496.278 500 479.104 518 421.104 518 c 1
 379.879 518 341.064 482.305 313.184 438 c 1
 445.1 438 l 1
 431.071 372 l 1
 281.792 372 l 1
 278.688 362.76 276.179 353.689 274.332 345 c 0
 272.115 334.571 270.551 324.567 269.571 315 c 1
 415.955 315 l 1
 401.927 249 l 1
 272.732 249 l 1
 284.492 196.947 317.616 169 346.922 169 c 0
 388.922 169 415.622 177 467.4 223 c 9
 504.41 176 l 1
 463.333 138 425.895 103 332.895 103 c 1
 242.479 103 201.663 166.269 196.488 249 c 1
 118.927 249 l 1
 132.955 315 l 1
 199.202 315 l 1
 200.616 325.575 202.477 336.265 204.757 347 c 0
 206.545 355.41 208.621 363.753 210.973 372 c 1
EndSplineSet
EndChar
StartChar: A
Encoding: 33 65 88
Width: 636
Flags: W
HStem: 0 21G<35 121 521 609> 237 66<286.403 489.403> 691 20G<442.128 504.128>
Fore
448.046 593 m 1
 286.403 303 l 1
 489.403 303 l 1
 448.046 593 l 1
493.377 237 m 1
 250.377 237 l 0
 121 0 l 0
 35 0 l 1
 442.128 711 l 0
 442.128 711 479.947 711 504.128 711 c 17
 609 0 l 1
 521 0 l 1
 493.377 237 l 1
EndSplineSet
KernsSLIFO: 90 -39 0 0 43 -46 0 0 42 -80 0 0 109 -104 0 0 107 -48 0 0
EndChar
StartChar: B
Encoding: 34 66 89
Width: 576
Flags: W
HStem: 0 69<150.666 306.666> 344 38<365.119 494.241> 344 68<223.573 494.241> 382 30<339.573 522.873> 643 68<239.096 539.762>
VStem: 502.076 75.377<203.885 314.905> 529.727 79.3184<523.177 605.339>
Back
165 530 m 4
 165 607.28 227.72 670 305 670 c 4
 382.28 670 445 607.28 445 530 c 4
 445 452.72 382.28 390 305 390 c 4
 227.72 390 165 452.72 165 530 c 4
128 198 m 4
 128 295.152 206.848 374 304 374 c 4
 401.152 374 480 295.152 480 198 c 4
 480 100.848 401.152 22 304 22 c 4
 206.848 22 128 100.848 128 198 c 4
EndSplineSet
Fore
209.119 344 m 1xac
 150.666 69 l 1
 306.666 69 l 1
 423.666 69 483.758 140 498.637 210 c 0
 500.884 220.575 502.076 231.012 502.076 241.113 c 0
 502.076 297.876 464.443 344 365.119 344 c 1xcc
 352.119 344 225.119 344 209.119 344 c 1xac
272.674 643 m 1
 223.573 412 l 1
 242.573 412 323.573 412 339.573 412 c 1
 480.573 412 517.877 484 527.019 527 c 1
 528.613 534.507 529.727 542.896 529.727 551.634 c 0xaa
 529.726 592.945 504.847 642 388.461 642 c 1
 373.461 642 290.674 643 272.674 643 c 1
210.128 711 m 1
 403.128 711 l 2
 563.215 710.152 609.045 635.252 609.045 564.309 c 0xca
 609.045 551.593 607.569 539.008 605.019 527 c 1
 588.013 447 503.195 382 450.195 382 c 1
 549.112 382 577.452 302.501 577.453 242.08 c 0xcc
 577.452 229.202 576.165 217.19 573.999 207 c 1
 559.758 140 505 0 292 0 c 1
 59 0 l 1
 210.128 711 l 1
EndSplineSet
EndChar
StartChar: C
Encoding: 35 67 90
Width: 596
Flags: W
HStem: -14 68<215.643 444.479> 661 69<341.501 569.3>
VStem: 111.929 83.1757<110.199 311.679> 609.67 77.252<563 641.369>
Fore
600.396 143 m 0
 553.816 65 468.024 -14 339.024 -14 c 0
 179.165 -14 111.929 100.148 111.929 242.649 c 0
 111.929 278.431 116.168 316.001 124.245 354 c 0
 164.631 544 298.166 730 498.166 730 c 0
 627.166 730 677.736 648 686.922 583 c 9
 656.794 575.2 609.67 563 609.67 563 c 0
 603.423 623 549.5 661 483.5 661 c 1
 482.222 661.005 l 0
 341.501 661.005 237.662 506.509 205.245 354 c 0
 198.492 322.229 195.104 291.006 195.104 261.415 c 0
 195.104 145.095 247.451 54 353.479 54 c 0
 423.479 54 500.318 105 532.646 163 c 9
 559.068 155.2 600.396 143 600.396 143 c 0
EndSplineSet
EndChar
StartChar: D
Encoding: 36 68 91
Width: 596
Flags: W
HStem: 0 69<150.666 276> 642 69<272.461 565.407>
VStem: 566.83 82.3842<388.391 572.984>
Fore
557.458 355 m 0
 563.284 382.41 566.83 412.13 566.83 441.707 c 0
 566.83 542.689 525.496 642 392.461 642 c 1
 272.461 642 l 1
 150.666 69 l 1
 270.666 69 l 1
 440.666 69 521.534 186 557.458 355 c 0
638.458 355 m 0
 596.159 156 460 0 276 0 c 1
 59 0 l 1
 210.128 711 l 1
 427.128 711 l 2
 577.423 711 649.214 595.905 649.214 453.739 c 0
 649.214 421.856 645.603 388.613 638.458 355 c 0
EndSplineSet
EndChar
StartChar: E
Encoding: 37 69 92
Width: 558
Flags: W
HStem: 0 69<150.666 509> 330 69<220.812 558.144> 642 69<272.461 645.461>
Fore
210.128 711 m 0
 660.128 711 l 1
 645.461 642 l 0
 272.461 642 l 0
 220.812 399 l 1
 572.812 399 l 1
 558.144 330 l 0
 206.144 330 l 0
 150.666 69 l 0
 523.666 69 l 0
 509 0 l 0
 59 0 l 1
 210.128 711 l 0
EndSplineSet
KernsSLIFO: 105 20 0 0
EndChar
StartChar: F
Encoding: 38 70 93
Width: 560
Flags: W
HStem: 0 21G<59 136> 330 69<220.812 558.144> 642 69<272.461 645.461>
Fore
210.128 711 m 1
 660.128 711 l 1
 645.461 642 l 25
 272.461 642 l 25
 220.812 399 l 1
 572.812 399 l 1
 558.144 330 l 25
 206.144 330 l 1
 136 0 l 1
 59 0 l 1
 210.128 711 l 1
EndSplineSet
EndChar
StartChar: G
Encoding: 39 71 94
Width: 666
Flags: W
HStem: -14 68<210.378 539.378> 271 69<406.27 583.602> 661 69<300.2 579.7>
VStem: 113.312 82.8736<120.314 318.969>
Fore
339.024 -14 m 0
 185.585 -12.3284 113.312 104.732 113.312 251.268 c 0
 113.312 285.282 117.206 320.884 124.883 357 c 0
 160.167 523 297.166 730 498.166 730 c 0
 607.166 730 656.389 684 685.724 615 c 9
 656.857 602.13 611.708 582 611.708 582 c 0
 587.698 629 557.5 661 483.5 661 c 1
 342.5 661 234.151 490 205.883 357 c 0
 199.516 327.041 196.186 296.313 196.186 266.458 c 0
 196.186 154.04 243.402 54 353.479 54 c 0
 496.479 54 566.386 190 583.602 271 c 1
 391.602 271 l 1
 406.27 340 l 1
 674.27 340 l 1
 665.342 298 l 1
 635.123 155.829 523.899 -14.0174 342.211 -14.0174 c 0
 341.151 -14.0174 340.089 -14.0116 339.024 -14 c 0
EndSplineSet
KernsSLIFO: 107 -33 0 0
EndChar
StartChar: H
Encoding: 40 72 95
Width: 585
Flags: W
HStem: 0 21G<59 136 459 536> 329 69<220.599 528.931> 691 20G<210.128 287.128 610.128 687.128>
Fore
210.128 711 m 0
 287.128 711 l 1
 220.599 398 l 1
 543.599 398 l 1
 610.128 711 l 1
 687.128 711 l 1
 536 0 l 1
 459 0 l 1
 528.931 329 l 0
 205.931 329 l 1
 136 0 l 1
 59 0 l 1
 210.128 711 l 0
EndSplineSet
EndChar
StartChar: I
Encoding: 41 73 96
Width: 217
Flags: W
HStem: 0 21G<75 152> 691 20G<226.128 303.128>
VStem: 75 228.128<0 711>
Fore
75 0 m 1
 226.128 711 l 1
 303.128 711 l 1
 152 0 l 1
 75 0 l 1
EndSplineSet
EndChar
StartChar: J
Encoding: 42 74 97
Width: 557
Flags: W
HStem: -14 73<189.077 410.741> 691 20G<576.128 653.128>
VStem: 102.035 72.0205<108.655 242.371>
Fore
110.479 261 m 0
 179.479 261 l 1
 175.86 243.979 174.056 226.769 174.056 209.972 c 0
 174.056 132.036 212.03 59 288.541 59 c 1
 382.541 59 459.646 163 480.479 261 c 2
 576.128 711 l 1
 653.128 711 l 1
 557.479 261 l 2
 523.681 102 407.024 -14 273.024 -14 c 1
 163.222 -14 102.036 70.4268 102.035 184.576 c 0
 102.036 208.693 104.805 234.314 110.479 261 c 0
EndSplineSet
EndChar
StartChar: K
Encoding: 43 75 98
Width: 605
Flags: W
HStem: 0 21G<59 136 502 603> 691 20G<210.128 287.128 652.128 746.128>
Fore
210.128 711 m 0
 287.128 711 l 1
 208.907 343 l 1
 652.128 711 l 1
 746.128 711 l 1
 362.322 392 l 1
 603 0 l 1
 502 0 l 1
 300.907 343 l 1
 189.564 252 l 1
 136 0 l 1
 59 0 l 1
 210.128 711 l 0
EndSplineSet
KernsSLIFO: 102 -53 0 0
EndChar
StartChar: L
Encoding: 44 76 99
Width: 540
Flags: W
HStem: 0 69<150.666 510> 691 20G<210.128 287.128>
VStem: 59 465.666<0 69>
Fore
210.128 711 m 1
 287.128 711 l 1
 150.666 69 l 1
 524.666 69 l 1
 510 0 l 1
 59 0 l 1
 210.128 711 l 1
EndSplineSet
EndChar
StartChar: M
Encoding: 45 77 100
Width: 763
Flags: W
HStem: 0 21G<59 134 639 714> 691 20G<210.128 315.128 764.128 865.128>
Fore
59 0 m 1
 210.128 711 l 2
 315.128 711 l 1
 409.681 102 l 2
 764.128 711 l 1
 865.128 711 l 1
 714 0 l 1
 639 0 l 25
 763.983 588 l 1
 431.7 8 l 0
 344.7 8 l 1
 258.983 588 l 0
 134 0 l 1
 59 0 l 1
EndSplineSet
EndChar
StartChar: N
Encoding: 46 78 101
Width: 621
Flags: W
HStem: 0 21G<59 136 501 572> 691 20G<210.128 285.128 646.128 723.128>
Fore
59 0 m 1
 210.128 711 l 2
 285.128 711 l 1
 525.608 144 l 25
 646.128 711 l 1
 723.128 711 l 1
 572 0 l 0
 501 0 l 1
 259.495 581 l 0
 136 0 l 1
 59 0 l 1
EndSplineSet
EndChar
StartChar: O
Encoding: 47 79 102
Width: 651
Flags: W
HStem: -14 69<191.701 545.791> 661 69<266.4 621.097>
VStem: 108.962 80.4883<116.101 315.305> 622.521 80.374<396.322 597.594>
Fore
610.245 354 m 0
 617.731 389.219 622.521 427.499 622.521 464.699 c 0
 622.522 566.926 586.344 661 470.5 661 c 0
 313.5 661 229.304 486 201.245 354 c 1
 193.994 319.887 189.45 283.197 189.45 247.585 c 0
 189.449 146.443 226.314 55 341.691 55 c 1
 498.691 55 582.4 223 610.245 354 c 0
120.245 354 m 1
 153.616 511 276.166 730 485.166 730 c 1
 648.93 730 702.896 596.821 702.896 463.722 c 0
 702.895 426.142 698.593 388.568 691.245 354 c 1
 658.086 198 536.024 -14 327.024 -14 c 1
 163.873 -14 108.962 116.05 108.962 247.848 c 0
 108.962 284.077 113.096 320.363 120.245 354 c 1
EndSplineSet
KernsSLIFO: 88 -48 0 0 107 -55 0 0
EndChar
StartChar: P
Encoding: 48 80 103
Width: 537
Flags: W
HStem: 0 21G<59 136> 308 70<216.348 317.348> 642 69<272.461 545.9>
VStem: 536.926 80.2725<509.839 604.525>
Fore
216.348 378 m 1
 317.348 378 l 1
 473.348 378 520.227 448 533.616 511 c 1
 535.615 520.403 536.926 530.42 536.926 540.566 c 0
 536.926 589.766 506.106 642 373.461 642 c 1
 272.461 642 l 1
 216.348 378 l 1
210.128 711 m 0
 287.128 711 l 1
 388.128 711 l 1
 541.97 710.125 617.198 645.679 617.198 552.518 c 0
 617.197 539.229 615.668 525.356 612.616 511 c 0
 589.235 401 487.469 308 302.469 308 c 1
 201.469 308 l 1
 136 0 l 1
 59 0 l 1
 210.128 711 l 0
EndSplineSet
KernsSLIFO: 88 -67 0 0
EndChar
StartChar: Q
Encoding: 49 81 104
Width: 669
Flags: W
HStem: -14 69<189.177 392.591> 661 69<294 620.884>
VStem: 108.961 81.1777<122.459 318.11> 626.16 80.3613<393.783 599.832>
Back
621.604 40.8271 m 5
 579.351 -16.0967 l 5
 341.614 160.365 l 5
 383.866 217.288 l 5
 621.604 40.8271 l 5
537.93 354.45 m 0
 537.93 485.805 485.805 660.945 328.388 660.945 c 0
 170.97 660.945 118.845 485.805 118.845 354.45 c 1
 118.845 223.095 172.013 54.21 328.388 54.21 c 1
 484.763 54.21 537.93 223.095 537.93 354.45 c 0
45.8701 354.45 m 1
 45.8701 510.825 118.845 729.75 328.388 729.75 c 1
 537.93 729.75 610.905 510.825 610.905 354.45 c 1
 610.905 198.075 536.888 -14.5947 328.388 -14.5947 c 1
 119.888 -14.5947 45.8701 198.075 45.8701 354.45 c 1
EndSplineSet
Fore
614.245 354 m 1
 621.752 389.318 626.159 426.059 626.16 461.33 c 0
 626.158 567.87 585.949 661 469.5 661 c 1
 334.5 661 234.616 511 201.245 354 c 1
 194.597 322.723 190.14 287.369 190.139 252.189 c 0
 190.139 152.396 226.219 55 349.691 55 c 1
 382.691 55 432.666 69 460.556 92 c 1
 383.222 161 l 1
 438.337 218 l 1
 519.82 145 l 1
 564.023 193 593.84 258 614.245 354 c 1
120.245 354 m 1
 153.616 511 280.166 730 485.166 730 c 0
 650.974 730 706.521 594.773 706.521 460.651 c 0
 706.521 424.097 702.393 387.626 695.245 354 c 1
 672.503 247 618.096 151 569.468 101 c 1
 637.928 42 l 1
 581.812 -15 l 1
 510.989 47 l 1
 462.977 14 412.024 -14 333.024 -14 c 1
 165.42 -14 108.961 115.644 108.961 248.311 c 0
 108.961 284.244 113.087 320.326 120.245 354 c 1
EndSplineSet
EndChar
StartChar: R
Encoding: 50 82 105
Width: 538
Flags: W
HStem: 0 21G<59 136 450.457 539.237> 308 70<216.348 306.471> 642 69<272.461 526.049>
VStem: 536.966 81.1655<509.143 618.959>
Back
131 378 m 5
 232 378 l 5
 388 378 420 448 420 511 c 5
 420 566 392 642 232 642 c 5
 131 642 l 5
 131 378 l 5
54 711 m 4
 131 711 l 5
 232 711 l 5
 408 710 499 626 499 511 c 4
 499 401 417 308 232 308 c 5
 131 308 l 5
 131 0 l 5
 54 0 l 5
 54 711 l 4
EndSplineSet
Fore
216.348 378 m 1
 317.348 378 l 1
 476.348 378 521.074 452 533.616 511 c 0
 535.817 521.353 536.966 531.318 536.966 540.808 c 0
 536.966 600.924 490.836 642 373.461 642 c 2
 272.461 642 l 1
 216.348 378 l 1
450.457 0 m 1
 306.471 308.015 l 1
 201.469 308 l 1
 136 0 l 1
 59 0 l 1
 210.128 711 l 0
 287.128 711 l 1
 388.128 711 l 2
 523.355 710.256 618.132 654.979 618.132 551.778 c 0
 618.132 538.925 616.662 525.328 613.616 511 c 0
 593.211 415 507.419 336 394.294 316.594 c 1
 539.237 0 l 1
 450.457 0 l 1
EndSplineSet
EndChar
StartChar: S
Encoding: 51 83 106
Width: 527
Flags: WO
HStem: -14 69<156.391 390.391> 661 69<306 504.9>
VStem: 160.759 80.319<422.624 538.838> 469.833 81.7207<196.18 314.909>
Back
37.0195 193 m 4
 37.0195 307.816 143.145 401 278.835 401 c 0
 414.525 401 520.65 307.816 520.65 193 c 0
 520.65 78.1836 414.525 -15 278.835 -15 c 0
 143.145 -15 37.0195 78.1836 37.0195 193 c 4
114.255 194 m 0
 114.255 271.28 187.515 334 277.78 334 c 0
 368.045 334 441.305 271.28 441.305 194 c 0
 441.305 116.72 368.045 54 277.78 54 c 0
 187.515 54 114.255 116.72 114.255 194 c 0
56 540 m 0
 56 644.88 155.008 730 277 730 c 0
 398.992 730 498 644.88 498 540 c 0
 498 435.12 398.992 350 277 350 c 0
 155.008 350 56 435.12 56 540 c 0
135 541 m 0
 135 607.24 198.168 661 276 661 c 0
 353.832 661 417 607.24 417 541 c 0
 417 474.76 353.832 421 276 421 c 0
 198.168 421 135 474.76 135 541 c 0
EndSplineSet
Fore
41.7578 140 m 1
 116.048 179 l 1
 148.231 114 183.691 55 274.691 55 c 1
 363.691 55 450.869 117 467.236 194 c 1
 468.999 202.291 469.833 210.13 469.833 217.548 c 0
 469.833 292.441 384.768 324.439 310.545 346 c 0
 246.846 364.503 160.759 406.51 160.759 499.162 c 0
 160.759 510.353 162.015 522.283 164.718 535 c 0
 188.099 645 304.166 730 418.166 730 c 1
 535.166 730 581.625 671 616.658 610 c 1
 547.37 571 l 1
 525.572 619 481.5 661 403.5 661 c 1
 328.5 661 258.384 604 243.718 535 c 0
 241.921 526.549 241.078 518.772 241.078 511.592 c 0
 241.078 443.155 317.737 429.024 376.872 404 c 0
 450.618 372.795 551.554 345.876 551.554 239.382 c 0
 551.554 225.64 549.873 210.572 546.236 194 c 0
 519.464 72.0029 392.236 -13 260.024 -14 c 1
 151.236 -13 88.7148 41 41.7578 140 c 1
EndSplineSet
EndChar
StartChar: T
Encoding: 52 84 107
Width: 607
Flags: W
HStem: 0 21G<276 353> 642 69<194.128 412.461 489.461 712.461>
Fore
194.128 711 m 0
 727.128 711 l 1
 712.461 642 l 0
 489.461 642 l 1
 353 0 l 1
 276 0 l 1
 412.461 642 l 1
 179.461 642 l 1
 194.128 711 l 0
EndSplineSet
KernsSLIFO: 41 -66 0 0 88 -54 0 0
EndChar
StartChar: U
Encoding: 53 85 108
Width: 618
Flags: W
HStem: -14 69<227.133 449.191> 691 20G<210.128 289.128 641.128 720.128>
VStem: 113.005 80.5898<71.1789 267.714>
Back
133 711 m 5
 54 711 l 5
 54 323 l 5
 54 117 150 -15 309 -15 c 4
 468.003 -15 564 117 564 323 c 5
 564 711 l 5
 485 711 l 5
 485 323 l 5
 485 142 404 54 309 54 c 5
 214 54 134 142 133 323 c 5
 133 711 l 5
EndSplineSet
Fore
641.128 711 m 1
 720.128 711 l 1
 635.955 315 l 1
 592.169 109 471.024 -14 311.024 -14 c 0
 182.771 -14 113.005 64.6738 113.005 202.391 c 0
 113.005 236.48 117.268 274.126 125.955 315 c 1
 210.128 711 l 1
 289.128 711 l 1
 204.955 315 l 1
 197.186 278.447 193.596 246.013 193.595 217.525 c 0
 193.595 104.951 249.877 55 325.691 55 c 1
 420.691 55 518.481 134 556.955 315 c 1
 641.128 711 l 1
EndSplineSet
EndChar
StartChar: V
Encoding: 54 86 109
Width: 608
Flags: W
HStem: 0 21G<257 364> 691 20G<190.128 273.128 650.128 730.128>
Fore
650.128 711 m 1
 730.128 711 l 1
 364 0 l 1
 257 0 l 1
 190.128 711 l 1
 273.128 711 l 1
 327.43 82 l 1
 650.128 711 l 1
EndSplineSet
KernsSLIFO: 124 -32 0 0 88 -119 0 0 92 -34 0 0
EndChar
StartChar: W
Encoding: 55 87 110
Width: 770
Flags: W
HStem: 0 21G<152 261 521 628> 691 20G<192.128 270.128 813.128 891.128>
VStem: 518.534 66.7676<370.419 600> 521 69.9189<89 411.581>
Fore
192.128 711 m 1xe0
 270.128 711 l 1
 227.918 89 l 0
 490.302 693 l 1
 585.302 693 l 0xe0
 590.919 89 l 1
 813.128 711 l 25
 891.128 711 l 1
 628 0 l 1
 521 0 l 1xd0
 518.534 600 l 2
 261 0 l 1
 152 0 l 2
 192.128 711 l 1xe0
EndSplineSet
KernsSLIFO: 124 -13 0 0 88 -47 0 0
EndChar
StartChar: X
Encoding: 56 88 111
Width: 593
Flags: W
HStem: 0 21G<39 126 474 567> 691 20G<187.128 276.128 626.128 715.128>
Fore
187.128 711 m 0
 276.128 711 l 1
 390.211 415 l 1
 626.128 711 l 1
 715.128 711 l 1
 418.67 356 l 1
 567 0 l 1
 474 0 l 1
 362.791 286 l 1
 126 0 l 1
 39 0 l 1
 336.67 356 l 1
 187.128 711 l 0
EndSplineSet
EndChar
StartChar: Y
Encoding: 57 89 112
Width: 576
Flags: W
HStem: 0 21G<254 331> 691 20G<188.128 270.128 618.128 700.128>
Fore
188.128 711 m 1
 270.128 711 l 1
 381.849 418 l 1
 618.128 711 l 1
 700.128 711 l 1
 408.583 365 l 1
 331 0 l 1
 254 0 l 1
 331.583 365 l 1
 188.128 711 l 1
EndSplineSet
KernsSLIFO: 88 -93 0 0 120 -62 0 0
EndChar
StartChar: Z
Encoding: 58 90 113
Width: 647
Flags: W
HStem: 0 69<194.666 608> 642 69<214.128 611.461>
Fore
214.128 711 m 1
 753.128 711 l 1
 194.666 69 l 1
 622.666 69 l 1
 608 0 l 1
 49 0 l 1
 611.461 642 l 1
 199.461 642 l 1
 214.128 711 l 1
EndSplineSet
EndChar
StartChar: bracketleft
Encoding: 59 91 114
Width: 306
Flags: W
HStem: -47 68<141.464 247.01> 678 69<281.113 401.113>
VStem: 54.0098 361.769<-47 747>
Fore
247.01 -47 m 0
 54.0098 -47 l 1
 222.778 747 l 0
 415.778 747 l 1
 401.113 678 l 1
 281.113 678 l 1
 141.464 21 l 1
 261.464 21 l 1
 247.01 -47 l 0
EndSplineSet
EndChar
StartChar: backslash
Encoding: 60 92 115
Width: 396
Flags: W
HStem: 0 21G<337 420>
VStem: 146.268 273.732<0 754>
Fore
337 0 m 1
 146.268 754 l 1
 230.268 754 l 0
 420 0 l 1
 337 0 l 1
EndSplineSet
KernsSLIFO: 115 -70 0 0
EndChar
StartChar: bracketright
Encoding: 61 93 116
Width: 312
Flags: W
HStem: -47 69<67.6758 187.676> 678 69<221.778 327.113>
VStem: 53.0098 361.769<-47 747>
Fore
53.0098 -47 m 0
 67.6758 22 l 1
 187.676 22 l 1
 327.113 678 l 1
 207.113 678 l 1
 221.778 747 l 1
 414.778 747 l 0
 246.01 -47 l 1
 53.0098 -47 l 0
EndSplineSet
EndChar
StartChar: asciicircum
Encoding: 62 94 117
Width: 453
Flags: W
HStem: 561 168<354.954 520.244>
VStem: 184.457 335.787<561 562>
Fore
520.244 561 m 1
 428.244 561 l 1
 374.352 665 l 1
 275.457 562 l 0
 184.457 562 l 1
 354.954 729 l 1
 418.954 729 l 1
 520.244 561 l 1
EndSplineSet
EndChar
StartChar: underscore
Encoding: 63 95 118
Width: 606
Flags: W
HStem: -113 69<33.6475 550.981>
Fore
18.9814 -113 m 1
 33.6475 -44 l 1
 565.646 -44 l 1
 550.981 -113 l 1
 18.9814 -113 l 1
EndSplineSet
EndChar
StartChar: grave
Encoding: 64 96 119
Width: 252
Flags: W
HStem: 557.87 208.292<247.681 309.881>
VStem: 201.358 143.244<590.562 722.549>
Fore
293.868 566.5 m 1
 205.479 706.592 l 1
 202.623 711.865 201.358 717.268 201.358 722.549 c 0
 201.357 737.259 211.17 751.024 223.758 758.411 c 0
 231.182 763.236 239.634 766.162 247.681 766.162 c 0
 257.71 766.162 267.109 761.618 273.106 750.544 c 1
 342.967 598.411 l 1
 344.095 595.86 344.603 593.216 344.603 590.562 c 0
 344.604 580.134 336.762 569.55 327.899 563.791 c 0
 322.408 560.222 315.954 557.87 309.881 557.87 c 0
 303.659 557.87 297.839 560.339 293.868 566.5 c 1
EndSplineSet
EndChar
StartChar: a
Encoding: 65 97 120
Width: 485
Flags: W
HStem: -14 66<170.94 321.024 452.364 476.024> 284 66<203.165 363.033> 466 66<274.253 413.205>
VStem: 72.3033 76.6629<72.8438 169.871> 393.319 17.1467<191.998 273> 426.276 71.4237<330.297 449.668>
Back
70 720 m 29
 70 -26 l 29
210 716 m 29
 210 -30 l 29
140 -34 m 29
 140 712 l 29
 140 -34 l 29
280 718 m 29
 280 -28 l 29
350 716 m 29
 350 -30 l 29
420 -24 m 29
 420 722 l 29
 420 -24 l 29
70 720 m 29
 70 -26 l 29
210 716 m 29
 210 -30 l 29
140 -34 m 29
 140 712 l 29
 140 -34 l 29
280 718 m 29
 280 -28 l 29
350 716 m 29
 350 -30 l 29
420 -24 m 29
 420 722 l 29
 420 -24 l 29
70 720 m 29
 70 -26 l 29
210 716 m 29
 210 -30 l 29
140 -34 m 29
 140 712 l 29
 140 -34 l 29
280 718 m 29
 280 -28 l 29
350 716 m 29
 350 -30 l 29
420 -24 m 29
 420 722 l 29
 420 -24 l 29
70 720 m 29
 70 -26 l 29
210 716 m 29
 210 -30 l 29
140 -34 m 29
 140 712 l 29
 140 -34 l 29
280 718 m 29
 280 -28 l 29
350 716 m 29
 350 -30 l 29
420 -24 m 29
 420 722 l 29
 420 -24 l 29
70 720 m 29
 70 -26 l 29
210 716 m 29
 210 -30 l 29
140 -34 m 29
 140 712 l 29
 140 -34 l 29
280 718 m 29
 280 -28 l 29
350 716 m 29
 350 -30 l 29
420 -24 m 29
 420 722 l 29
 420 -24 l 29
70 720 m 29
 70 -26 l 29
210 716 m 29
 210 -30 l 29
140 -34 m 29
 140 712 l 29
 140 -34 l 29
280 718 m 29
 280 -28 l 29
350 716 m 29
 350 -30 l 29
420 -24 m 29
 420 722 l 29
 420 -24 l 29
70 720 m 29
 70 -26 l 29
210 716 m 29
 210 -30 l 29
140 -34 m 29
 140 712 l 29
 140 -34 l 29
280 718 m 29
 280 -28 l 29
350 716 m 29
 350 -30 l 29
420 -24 m 29
 420 722 l 29
 420 -24 l 29
70 720 m 29
 70 -26 l 29
210 716 m 29
 210 -30 l 29
140 -34 m 29
 140 712 l 29
 140 -34 l 29
280 718 m 29
 280 -28 l 29
350 716 m 29
 350 -30 l 29
420 -24 m 29
 420 722 l 29
 420 -24 l 29
70 720 m 29
 70 -26 l 29
210 716 m 29
 210 -30 l 29
140 -34 m 29
 140 712 l 29
 140 -34 l 29
280 718 m 29
 280 -28 l 29
350 716 m 29
 350 -30 l 29
420 -24 m 29
 420 722 l 29
 420 -24 l 29
70 720 m 29
 70 -26 l 29
210 716 m 29
 210 -30 l 29
140 -34 m 29
 140 712 l 29
 140 -34 l 29
280 718 m 29
 280 -28 l 29
350 716 m 29
 350 -30 l 29
420 -24 m 29
 420 722 l 29
 420 -24 l 29
70 720 m 29
 70 -26 l 29
210 716 m 29
 210 -30 l 29
140 -34 m 29
 140 712 l 29
 140 -34 l 29
280 718 m 29
 280 -28 l 29
350 716 m 29
 350 -30 l 29
420 -24 m 29
 420 722 l 29
 420 -24 l 29
70 720 m 29
 70 -26 l 29
210 716 m 29
 210 -30 l 29
140 -34 m 29
 140 712 l 29
 140 -34 l 29
280 718 m 29
 280 -28 l 29
350 716 m 29
 350 -30 l 29
420 -24 m 29
 420 722 l 29
 420 -24 l 29
70 720 m 29
 70 -26 l 29
210 716 m 29
 210 -30 l 29
140 -34 m 29
 140 712 l 29
 140 -34 l 29
280 718 m 29
 280 -28 l 29
350 716 m 29
 350 -30 l 29
420 -24 m 29
 420 722 l 29
 420 -24 l 29
70 720 m 29
 70 -26 l 29
210 716 m 29
 210 -30 l 29
140 -34 m 29
 140 712 l 29
 140 -34 l 29
280 718 m 29
 280 -28 l 29
350 716 m 29
 350 -30 l 29
420 -24 m 29
 420 722 l 29
 420 -24 l 29
70 720 m 29
 70 -26 l 29
210 716 m 29
 210 -30 l 29
140 -34 m 29
 140 712 l 29
 140 -34 l 29
280 718 m 29
 280 -28 l 29
350 716 m 29
 350 -30 l 29
420 -24 m 29
 420 722 l 29
 420 -24 l 29
70 720 m 29
 70 -26 l 29
210 716 m 29
 210 -30 l 29
140 -34 m 29
 140 712 l 29
 140 -34 l 29
280 718 m 29
 280 -28 l 29
350 716 m 29
 350 -30 l 29
420 -24 m 29
 420 722 l 29
 420 -24 l 29
70 720 m 25
 70 -26 l 25
210 716 m 25
 210 -30 l 25
140 -34 m 25
 140 712 l 25
 140 -34 l 25
280 718 m 25
 280 -28 l 25
350 716 m 25
 350 -30 l 25
420 -24 m 25
 420 722 l 25
 420 -24 l 25
70 720 m 25
 70 -26 l 25
210 716 m 25
 210 -30 l 25
140 -34 m 25
 140 712 l 25
 140 -34 l 25
280 718 m 25
 280 -28 l 25
350 716 m 25
 350 -30 l 25
420 -24 m 25
 420 722 l 25
 420 -24 l 25
70 720 m 25
 70 -26 l 25
210 716 m 25
 210 -30 l 25
140 -34 m 25
 140 712 l 25
 140 -34 l 25
280 718 m 25
 280 -28 l 25
350 716 m 25
 350 -30 l 25
420 -24 m 25
 420 722 l 25
 420 -24 l 25
70 720 m 25
 70 -26 l 25
210 716 m 25
 210 -30 l 25
140 -34 m 25
 140 712 l 25
 140 -34 l 25
280 718 m 25
 280 -28 l 25
350 716 m 25
 350 -30 l 25
420 -24 m 25
 420 722 l 25
 420 -24 l 25
70 720 m 25
 70 -26 l 25
210 716 m 25
 210 -30 l 25
140 -34 m 25
 140 712 l 25
 140 -34 l 25
280 718 m 25
 280 -28 l 25
350 716 m 25
 350 -30 l 25
420 -24 m 25
 420 722 l 25
 420 -24 l 25
70 720 m 25
 70 -26 l 25
210 716 m 25
 210 -30 l 25
140 -34 m 25
 140 712 l 25
 140 -34 l 25
280 718 m 25
 280 -28 l 25
350 716 m 25
 350 -30 l 25
420 -24 m 25
 420 722 l 25
 420 -24 l 25
70 720 m 25
 70 -26 l 25
210 716 m 25
 210 -30 l 25
140 -34 m 25
 140 712 l 25
 140 -34 l 25
280 718 m 25
 280 -28 l 25
350 716 m 25
 350 -30 l 25
420 -24 m 25
 420 722 l 25
 420 -24 l 25
70 720 m 25
 70 -26 l 25
210 716 m 25
 210 -30 l 25
140 -34 m 25
 140 712 l 25
 140 -34 l 25
280 718 m 25
 280 -28 l 25
350 716 m 25
 350 -30 l 25
420 -24 m 25
 420 722 l 25
 420 -24 l 25
70 720 m 25
 70 -26 l 25
210 716 m 25
 210 -30 l 25
140 -34 m 25
 140 712 l 25
 140 -34 l 25
280 718 m 25
 280 -28 l 25
350 716 m 25
 350 -30 l 25
420 -24 m 25
 420 722 l 25
 420 -24 l 25
70 720 m 25
 70 -26 l 25
210 716 m 25
 210 -30 l 25
140 -34 m 25
 140 712 l 25
 140 -34 l 25
280 718 m 25
 280 -28 l 25
350 716 m 25
 350 -30 l 25
420 -24 m 25
 420 722 l 25
 420 -24 l 25
70 720 m 25
 70 -26 l 25
210 716 m 25
 210 -30 l 25
140 -34 m 25
 140 712 l 25
 140 -34 l 25
280 718 m 25
 280 -28 l 25
350 716 m 25
 350 -30 l 25
420 -24 m 25
 420 722 l 25
 420 -24 l 25
70 720 m 25
 70 -26 l 25
210 716 m 25
 210 -30 l 25
140 -34 m 25
 140 712 l 25
 140 -34 l 25
280 718 m 25
 280 -28 l 25
350 716 m 25
 350 -30 l 25
420 -24 m 25
 420 722 l 25
 420 -24 l 25
70 720 m 25
 70 -26 l 25
210 716 m 25
 210 -30 l 25
140 -34 m 25
 140 712 l 25
 140 -34 l 25
280 718 m 25
 280 -28 l 25
350 716 m 25
 350 -30 l 25
420 -24 m 25
 420 722 l 25
 420 -24 l 25
70 720 m 25
 70 -26 l 25
210 716 m 25
 210 -30 l 25
140 -34 m 25
 140 712 l 25
 140 -34 l 25
280 718 m 25
 280 -28 l 25
350 716 m 25
 350 -30 l 25
420 -24 m 25
 420 722 l 25
 420 -24 l 25
70 720 m 25
 70 -26 l 25
210 716 m 25
 210 -30 l 25
140 -34 m 25
 140 712 l 25
 140 -34 l 25
280 718 m 25
 280 -28 l 25
350 716 m 25
 350 -30 l 25
420 -24 m 25
 420 722 l 25
 420 -24 l 25
70 720 m 25
 70 -26 l 25
210 716 m 25
 210 -30 l 25
140 -34 m 25
 140 712 l 25
 140 -34 l 25
280 718 m 25
 280 -28 l 25
350 716 m 25
 350 -30 l 25
420 -24 m 25
 420 722 l 25
 420 -24 l 25
EndSplineSet
Fore
299.365 284 m 0
 225.365 284 165.101 231 151.71 168 c 0
 149.859 159.293 148.966 150.894 148.966 142.868 c 0
 148.966 89.0033 189.197 52 250.053 52 c 0
 312.053 52 376.894 103 390.71 168 c 0
 392.484 176.346 393.319 184.359 393.319 191.998 c 0
 393.319 248.059 348.34 284 299.365 284 c 0
307.396 350 m 0
 371.396 350 409.342 298 410.466 273 c 1
 420.457 320 l 1
 424.346 338.295 426.276 355.087 426.276 370.25 c 0
 426.276 431.341 394.939 466 334.053 466 c 0
 288.053 466 242.65 450 215.976 428 c 1
 188.814 479 l 1
 228.767 507 278.08 532 348.08 532 c 0
 435.244 532 497.7 479.498 497.7 380.47 c 0
 497.7 361.931 495.511 341.761 490.886 320 c 2
 478.133 260 l 0
 450.926 132 l 2
 448.077 118.596 446.649 107.025 446.649 97.1777 c 0
 446.649 65.8857 461.062 52 490.053 52 c 1
 476.024 -14 l 1
 412.024 -14 369.951 28 371.362 76.1504 c 0
 371.367 77 l 1
 363.266 53 300.024 -14 230.024 -14 c 0
 139.338 -14 72.3033 40.6182 72.3033 127.848 c 0
 72.3033 140.562 73.7274 153.969 76.71 168 c 0
 99.0283 273 207.396 350 307.396 350 c 0
EndSplineSet
KernsSLIFO: 42 -60 0 0
EndChar
StartChar: b
Encoding: 66 98 121
Width: 510
Flags: HW
HStem: -14.0117 66.0117<221.834 378.553> 467 66<310.764 455.478> 690 20G<213.915 287.915>
VStem: 464.45 76.8394<286.876 427.386>
Back
70 720 m 29
 70 -26 l 29
210 716 m 29
 210 -30 l 29
140 -34 m 29
 140 712 l 29
 140 -34 l 29
280 718 m 29
 280 -28 l 29
350 716 m 29
 350 -30 l 29
420 -24 m 29
 420 722 l 29
 420 -24 l 29
EndSplineSet
Fore
287.915 710 m 9
 227.763 427 l 1
 265.178 476 329.293 533 396.293 533 c 0
 495.03 533 541.289 452.04 541.289 348.179 c 0
 541.289 321.007 538.123 292.267 531.902 263 c 0
 502.568 125 404.024 -14 281.024 -14 c 1
 280.374 -14.0078 279.725 -14.0117 279.082 -14.0117 c 0
 209.363 -14.0117 175.978 43.5264 156.13 90 c 9
 137 0 l 1
 63 0 l 1
 213.915 710 l 1
 287.915 710 l 9
456.902 263 m 0
 461.886 286.449 464.45 310.364 464.45 333.177 c 0
 464.45 405.645 438.583 467 382.264 467 c 0
 327.264 467 220.873 404 190.688 262 c 1
 185.787 238.936 183.529 217.278 183.529 197.286 c 0
 183.529 108.062 238.5 52 294.053 52 c 1
 359.053 52 432.671 149 456.902 263 c 0
EndSplineSet
EndChar
StartChar: c
Encoding: 67 99 122
Width: 450
Flags: W
HStem: -14 66<185.479 351.352> 468 66<256.176 426.476>
VStem: 84.6895 75.4213<78.673 245.852>
Back
42 260 m 4
 42 411.8 139.664 535 260 535 c 4
 380.336 535 478 411.8 478 260 c 4
 478 108.2 380.336 -15 260 -15 c 4
 139.664 -15 42 108.2 42 260 c 4
117 259 m 4
 117 373.816 181.064 467 260 467 c 4
 338.936 467 403 373.816 403 259 c 4
 403 144.184 338.936 51 260 51 c 4
 181.064 51 117 144.184 117 259 c 4
70 720 m 29
 70 -26 l 29
210 716 m 29
 210 -30 l 29
140 -34 m 29
 140 712 l 29
 140 -34 l 29
280 718 m 29
 280 -28 l 29
350 716 m 29
 350 -30 l 29
420 -24 m 29
 420 722 l 29
 420 -24 l 29
EndSplineSet
Fore
526.96 395 m 9
 496.149 395 447.96 395 447.96 395 c 0
 443.911 423 411.477 468 361.478 468 c 1
 280.477 468 193.408 383 167.688 262 c 0
 162.537 237.766 160.111 215.225 160.111 194.598 c 0
 160.111 105.425 205.458 52 272.054 52 c 0
 333.053 52 380.531 106 395.42 129 c 9
 473.42 129 l 1
 443.154 76 361.024 -14 258.024 -14 c 1
 149.716 -14 84.6895 72.0722 84.6895 188.699 c 0
 84.6895 212.056 87.2976 236.638 92.6885 262 c 0
 122.446 402 235.505 534 375.505 534 c 0
 469.505 534 513.839 465 526.96 395 c 9
EndSplineSet
EndChar
StartChar: d
Encoding: 68 100 123
Width: 510
Flags: W
HStem: -14.0117 66.0117<191.932 339.595> 467 66<267.064 414.482> 690 20G<547.915 621.915>
VStem: 104.524 76.6086<92.2433 239.113>
Back
372 519 m 21
 446 519 l 5
 446 -191 l 5
 372 -191 l 5
 372 80 l 21
 342 33.0964 306 -14.8904 235 -14 c 5
 112 -14 53 125 53 263 c 4
 53 401 110 533 236 533 c 5
 303 533 345 486 372 437 c 5
 372 519 l 21
128 263 m 4
 128 149 171 52 236 52 c 5
 304 52 374 136 374 262 c 5
 374 404 291 467 236 467 c 4
 172 467 128 380 128 263 c 4
70 720 m 25
 70 -26 l 25
210 716 m 25
 210 -30 l 25
140 -34 m 25
 140 712 l 25
 140 -34 l 25
280 718 m 25
 280 -28 l 25
350 716 m 25
 350 -30 l 25
420 -24 m 25
 420 722 l 25
 420 -24 l 25
EndSplineSet
Fore
547.915 710 m 17
 621.915 710 l 1
 471 0 l 1
 397 0 l 1
 416.13 90 l 17
 376.525 43.5264 318.68 -14.0117 248.963 -14.0117 c 0
 248.319 -14.0117 247.673 -14.0078 247.024 -14 c 0
 150.706 -14 104.524 71.1791 104.524 177.009 c 0
 104.524 204.648 107.673 233.694 113.902 263 c 0
 143.235 401 238.293 533 364.293 533 c 1
 431.293 533 471.178 476 487.763 427 c 1
 547.915 710 l 17
188.902 263 m 0
 183.722 238.628 181.132 213.981 181.132 190.552 c 0
 181.132 114.93 208.114 52 262.053 52 c 0
 330.053 52 427.906 136 454.688 262 c 0
 459.192 283.185 461.223 302.701 461.223 320.56 c 0
 461.223 418.884 399.662 467 350.264 467 c 0
 286.264 467 213.771 380 188.902 263 c 0
EndSplineSet
EndChar
StartChar: e
Encoding: 69 101 124
Width: 495
Flags: W
HStem: -14 66<178.803 323.874> 229 66<188.36 443.048> 468 66<251.036 436.438>
VStem: 93.8832 77.6315<92.1756 235.082> 446.249 71.6221<293.602 429.364>
Back
70 720 m 25
 70 -26 l 25
210 716 m 25
 210 -30 l 25
140 -34 m 25
 140 712 l 25
 140 -34 l 25
280 718 m 25
 280 -28 l 25
350 716 m 25
 350 -30 l 25
420 -24 m 25
 420 722 l 25
 420 -24 l 25
EndSplineSet
Fore
188.36 295 m 1
 443.048 295 l 1
 445.167 309.163 446.249 323.262 446.249 336.948 c 0
 446.249 408.038 417.063 468 352.478 468 c 0
 274.445 468 211.348 378 188.36 295 c 1
174.316 229 m 1
 172.475 214.819 171.515 200.679 171.515 186.926 c 0
 171.515 114.041 198.476 52 264.053 52 c 0
 310.069 52 368.235 79.3281 397.606 118.484 c 0
 456.816 91.6094 l 0
 409.735 27.0625 325.446 -14 250.024 -14 c 0
 145.835 -14 93.8832 64.417 93.8832 174.196 c 0
 93.8832 201.738 97.1531 231.254 103.688 262 c 0
 136.424 416 236.505 534 366.505 534 c 0
 471.883 534 517.871 450.64 517.871 351.391 c 0
 517.871 326.891 515.068 301.422 509.665 276 c 0
 507.378 265.24 502.517 240.156 500.146 229 c 1
 174.316 229 l 1
EndSplineSet
KernsSLIFO: 40 -26 0 0
EndChar
StartChar: f
Encoding: 70 102 125
Width: 350
Flags: W
HStem: 0 21G<129 203> 458 66<172.38 226.351 314.38 396.351> 657 66<358.15 428.35>
VStem: 129 369.176<0 683>
Back
70 720 m 25
 70 -26 l 25
210 716 m 25
 210 -30 l 25
140 -34 m 25
 140 712 l 25
 140 -34 l 25
280 718 m 25
 280 -28 l 25
350 716 m 25
 350 -30 l 25
420 -24 m 25
 420 722 l 25
 420 -24 l 25
EndSplineSet
Fore
300.351 458 m 0
 203 0 l 1
 129 0 l 1
 226.351 458 l 0
 158.351 458 l 1
 172.38 524 l 1
 240.38 524 l 1
 253.978 590 l 0
 271.407 672 370.679 723 419.68 723 c 0
 461.679 723 479.853 705 498.176 683 c 9
 434.336 632 l 17
 426.312 646 419.649 657 390.648 657 c 1
 365.649 657 339.494 640 333.117 610 c 0
 314.38 524 l 1
 410.38 524 l 1
 396.351 458 l 1
 300.351 458 l 0
EndSplineSet
KernsSLIFO: 120 -39 0 0 34 -33 0 0 45 -20 0 0 40 -34 0 0 41 -40 0 0 35 -20 0 0
EndChar
StartChar: g
Encoding: 71 103 126
Width: 499
Flags: W
HStem: -219 66<153.49 305.779> -14.0117 66.0117<181.07 327.854> 467 67<252.864 418.736>
VStem: 48.1807 70.4024<-131.241 -51.5283> 95.2036 75.6093<90.3934 242.298>
Back
362 519 m 21
 436 519 l 5
 436 -191 l 5
 362 -191 l 5
 362 80 l 21
 332 33.0967 296 -14.8906 225 -14 c 5
 102 -14 43 125 43 263 c 4
 43 401 100 533 226 533 c 5
 293 533 335 486 362 437 c 5
 362 519 l 21
118 263 m 4
 118 149 161 52 226 52 c 5
 294 52 364 136 364 262 c 5
 364 404 281 467 226 467 c 4
 162 467 118 380 118 263 c 4
490 -24 m 25
 490 722 l 25
 490 -24 l 25
70 720 m 25
 70 -26 l 25
210 716 m 25
 210 -30 l 25
140 -34 m 25
 140 712 l 25
 140 -34 l 25
280 718 m 25
 280 -28 l 25
350 716 m 25
 350 -30 l 25
420 -24 m 25
 420 722 l 25
 420 -24 l 25
EndSplineSet
Fore
178.902 263 m 0xe8
 173.533 237.739 170.813 212.459 170.813 188.621 c 0
 170.813 113.061 198.143 52 255.054 52 c 0
 311.054 52 415.357 124 444.902 263 c 0
 448.955 282.068 450.835 300.323 450.835 317.527 c 0
 450.835 406.245 400.858 467 341.264 467 c 0
 273.264 467 203.134 377 178.902 263 c 0xe8
405.918 89 m 1
 381.157 61.2139 317.601 -14.0117 242.752 -14.0117 c 0
 242.177 -14.0117 241.602 -14.0078 241.023 -14 c 1
 240.585 -14.0029 240.146 -14.0049 239.71 -14.0049 c 0
 136.6 -14.0049 95.2036 78.1468 95.2036 179.882 c 0xe8
 95.2036 208.105 98.3894 237.065 104.327 265 c 0
 133.66 403 230.505 534 355.505 534 c 0
 420.505 534 461.178 476 477.763 427 c 9
 498.38 524 l 1
 572.38 524 l 1
 459.087 -9 l 2
 430.817 -142 315.45 -219 216.45 -219 c 0
 98.6937 -219 48.1807 -134.077 48.1807 -65.3111 c 0
 48.1807 -61.1404 48.3665 -57.0292 48.7344 -53 c 1
 118.733 -53 l 17
 118.633 -54.7715 118.583 -56.5269 118.583 -58.2654 c 0xf0
 118.583 -114.401 170.334 -153 226.479 -153 c 0
 287.479 -153 363.619 -110 383.599 -16 c 0
 405.918 89 l 1
EndSplineSet
KernsSLIFO: 129 57 0 0
EndChar
StartChar: h
Encoding: 72 104 127
Width: 520
Flags: W
HStem: 0 21G<63 137 393 467> 471 67<300.255 464.444> 690 20G<213.915 287.915>
VStem: 468.408 74.932<338.908 450.373>
Back
137 0 m 13
 63 0 l 5
 63 524 l 5
 137 524 l 5
 137 425 l 21
 164 479 214 538 285 538 c 4
 382 538 466.999 480 466.999 321 c 5
 467 0 l 5
 393 0 l 4
 392.999 321 l 5
 392.999 428 351 471 285.001 471 c 4
 209 471 137 386 137 302 c 4
 137 0 l 13
490 -24 m 25
 490 722 l 25
 490 -24 l 25
70 720 m 25
 70 -26 l 25
210 716 m 25
 210 -30 l 25
140 -34 m 25
 140 712 l 25
 140 -34 l 25
280 718 m 25
 280 -28 l 25
350 716 m 25
 350 -30 l 25
420 -24 m 25
 420 722 l 25
 420 -24 l 25
EndSplineSet
Fore
137 0 m 9
 63 0 l 1
 213.915 710 l 1
 287.915 710 l 1
 227.549 426 l 17
 262.752 474 323.355 538 400.355 538 c 0
 495.823 538 543.34 482.595 543.34 391.784 c 0
 543.34 370.115 540.635 346.429 535.229 321 c 1
 467 0 l 1
 393 0 l 0
 461.229 321 l 1
 465.795 342.475 468.408 362.79 468.408 381.13 c 0
 468.408 434.394 446.368 471 386.115 471 c 0
 310.114 471 220.109 391 200.342 298 c 0
 137 0 l 9
EndSplineSet
EndChar
StartChar: i
Encoding: 73 105 128
Width: 210
Flags: W
HStem: 0 21G<73 147> 504 20G<184.38 258.38>
VStem: 73 222.369<0 660.262>
Back
70 720 m 25
 70 -26 l 25
210 716 m 25
 210 -30 l 25
140 -34 m 25
 140 712 l 25
 140 -34 l 25
280 718 m 25
 280 -28 l 25
350 716 m 25
 350 -30 l 25
420 -24 m 25
 420 722 l 25
 420 -24 l 25
EndSplineSet
Fore
202.374 651 m 0
 207.688 676 233.152 697 258.152 697 c 0
 279.99 697 295.369 680.977 295.369 660.262 c 0
 295.369 657.262 295.046 654.163 294.374 651 c 0
 289.062 626 263.597 605 238.597 605 c 0
 216.759 605 201.38 621.023 201.38 641.739 c 0
 201.38 644.739 201.702 647.838 202.374 651 c 0
184.38 524 m 1
 258.38 524 l 1
 147 0 l 1
 73 0 l 1
 184.38 524 l 1
EndSplineSet
EndChar
StartChar: j
Encoding: 74 106 129
Width: 229
Flags: W
HStem: -209 66<-19.5955 26.7752> 504 20G<203.38 277.38>
VStem: -93.9219 408.302<-169 660.337>
Back
92 56 m 4
 92 514 l 5
 166 514 l 5
 166 56 l 4
 234 56 l 5
 234 -10 l 5
 166 -10 l 5
 166.431 -76 l 4
 166.431 -158 78 -209 28.999 -209 c 4
 -13 -209 -35 -191 -58 -169 c 13
 -5 -118 l 21
 6 -132 15 -143 44.001 -143 c 5
 69 -143 91.542 -126 91.542 -96 c 4
 92 -10 l 5
 -4 -10 l 5
 -4 56 l 5
 92 56 l 4
70 720 m 25
 70 -26 l 25
210 716 m 25
 210 -30 l 25
140 -34 m 25
 140 712 l 25
 140 -34 l 25
280 718 m 25
 280 -28 l 25
350 716 m 25
 350 -30 l 25
420 -24 m 25
 420 722 l 25
 420 -24 l 25
EndSplineSet
Fore
221.374 651 m 0
 226.688 676 252.152 697 277.152 697 c 0
 298.098 697 314.38 681.614 314.38 660.337 c 0
 314.38 657.333 314.056 654.212 313.374 651 c 0
 308.062 626 282.597 605 257.597 605 c 0
 236.66 605 220.366 620.385 220.366 641.659 c 0
 220.366 644.664 220.691 647.787 221.374 651 c 0
-93.9219 -169 m 9
 -31.2939 -119 l 1
 -21.6328 -130 -12.3955 -143 11.6045 -143 c 1
 44.6045 -143 66.0488 -124 74.7637 -83 c 0
 92 0 l 1
 203.38 524 l 1
 277.38 524 l 0
 166 0 l 1
 151.546 -68 l 0
 128.59 -176 16.5752 -209 -17.4248 -209 c 1
 -61.4248 -209 -78.748 -187 -93.9219 -169 c 9
EndSplineSet
KernsSLIFO: 129 39 0 0
EndChar
StartChar: k
Encoding: 75 107 130
Width: 461
Flags: W
HStem: 0 21G<63 137 374 459> 504 20G<448.38 533.38> 690 20G<213.915 287.915>
VStem: 63 470.38<0 524>
Back
70 720 m 29
 70 -26 l 29
210 716 m 29
 210 -30 l 29
140 -34 m 29
 140 712 l 29
 140 -34 l 29
280 718 m 29
 280 -28 l 29
350 716 m 29
 350 -30 l 29
420 -24 m 29
 420 722 l 29
 420 -24 l 29
EndSplineSet
Fore
297.979 301 m 1
 459 0 l 1
 374 0 l 1
 242.139 250 l 1
 176.323 185 l 1
 137 0 l 1
 63 0 l 1
 213.915 710 l 1
 287.915 710 l 1
 197.366 284 l 17
 448.38 524 l 1
 533.38 524 l 1
 297.979 301 l 1
EndSplineSet
EndChar
StartChar: l
Encoding: 76 108 131
Width: 210
Flags: W
HStem: -14 64<177.688 215.628> 690 20G<223.915 297.915>
VStem: 90.5645 76.2559<52.419 104.99>
Back
70 720 m 29
 70 -26 l 29
210 716 m 29
 210 -30 l 29
140 -34 m 29
 140 712 l 29
 140 -34 l 29
280 718 m 29
 280 -28 l 29
350 716 m 29
 350 -30 l 29
420 -24 m 29
 420 722 l 29
 420 -24 l 29
EndSplineSet
Fore
168.468 101 m 1
 167.354 95.7598 166.819 90.9805 166.82 86.6367 c 0
 166.82 60.3154 186.443 50 215.628 50 c 1
 202.024 -14 l 1
 133.243 -14 90.5654 4.48047 90.5645 65.5908 c 0
 90.5654 75.5586 91.7002 86.6602 94.043 99 c 1
 223.915 710 l 1
 297.915 710 l 1
 168.468 101 l 1
EndSplineSet
EndChar
StartChar: braceleft
Encoding: 91 123 132
Width: 365
Flags: W
HStem: -50 64<258.176 299.372> 683 64<399.489 468.778>
VStem: 150.61 72.2871<26.0811 82.0626> 180.669 70.0996<192.737 312.055>
Fore
119.67 356 m 1xd0
 260.598 398 255.423 623 294.389 684 c 1
 337.354 745 401.354 745 468.778 747 c 1
 454.751 681 l 1
 447.964 682 441.176 683 434.176 683 c 0
 408.176 683 371.051 673 354.012 654 c 1
 347.099 645 342.062 626 337.384 604 c 0
 335.896 597 334.408 590 332.708 582 c 0
 320.167 523 276.921 376 223.67 356 c 1
 244.068 347.872 250.768 310.791 250.769 266.853 c 0xd0
 250.769 213.486 240.885 150.004 233.655 116 c 0
 229.193 95 l 0
 225.507 77.6602 222.897 62.9297 222.897 52.6953 c 0
 222.897 48.7646 223.282 45.4971 224.14 43 c 1
 233.103 24 265.976 14 291.976 14 c 0
 298.976 14 306.188 15 313.401 16 c 1
 299.372 -50 l 1
 232.797 -48 168.797 -48 151.765 13 c 1
 150.97 16.7168 150.611 21.1064 150.61 26.0811 c 0xe0
 150.611 71.6602 180.67 166.387 180.669 243.602 c 0
 180.669 296.258 166.69 340.77 119.67 356 c 1xd0
EndSplineSet
EndChar
StartChar: bar
Encoding: 92 124 133
Width: 180
Flags: W
HStem: 0 21G<61 131> 690 20G<211.915 281.915>
VStem: 61 220.915<0 710>
Fore
61 0 m 17
 211.915 710 l 1
 281.915 710 l 1
 131 0 l 9
 61 0 l 17
EndSplineSet
EndChar
StartChar: braceright
Encoding: 93 125 134
Width: 365
Flags: W
HStem: -47 64<55.0098 124.3> 683 64<223.778 264.976>
VStem: 274.642 70.1621<400.97 516.56> 300.263 72.3193<614.047 670.568>
Fore
406.67 356 m 1xe0
 266.168 316 268.367 77 229.401 16 c 1
 186.435 -45 122.435 -45 55.0098 -47 c 1
 69.04 19 l 1
 75.8262 18 82.6133 17 89.6133 17 c 0
 115.613 17 152.739 27 169.776 46 c 1
 176.689 55 181.729 74 186.829 98 c 0
 191.294 119 l 0
 204.473 181 249.844 338 302.67 356 c 1
 281.483 365.469 274.643 403.405 274.642 446.992 c 0xe0
 274.642 495.468 283.104 550.933 289.708 582 c 0
 291.408 590 292.896 597 294.384 604 c 0
 297.747 619.82 300.263 634.09 300.263 644.204 c 0
 300.263 648.155 299.879 651.472 299.012 654 c 1
 290.051 673 257.176 683 231.176 683 c 0
 224.176 683 216.964 682 209.751 681 c 1
 223.778 747 l 1
 290.354 745 354.354 745 371.389 684 c 1
 372.212 680.148 372.581 675.641 372.582 670.568 c 0xd0
 372.58 626.555 344.804 539.888 344.804 467.642 c 0
 344.804 416.355 358.802 372.336 406.67 356 c 1xe0
EndSplineSet
EndChar
StartChar: asciitilde
Encoding: 94 126 135
Width: 359
Flags: W
HStem: 275 71<257.245 355.253> 349 71<159.872 245.184>
VStem: 95.1924 330.555<302 394>
Fore
110.282 373 m 17
 136.108 391 171.272 420 209.272 420 c 0
 257.272 420 272.545 346 323.545 346 c 1
 357.545 346 391.071 372 425.747 394 c 9
 410.656 323 l 17
 375.767 300 344.453 275 308.453 275 c 0
 252.453 275 233.184 349 193.184 349 c 0
 155.184 349 126.868 324 95.1924 302 c 9
 110.282 373 l 17
EndSplineSet
EndChar
StartChar: cent
Encoding: 97 162 138
Width: 395
Flags: W
VStem: 101.682 71.2295<213.8 317.863>
Fore
214.906 136 m 1
 148.863 144.373 101.682 192.01 101.682 271.278 c 0
 101.682 286.677 103.462 303.27 107.229 321 c 0
 129.549 426 222.9 470 287.09 485 c 1
 309.408 590 l 1
 375.408 590 l 1
 353.09 485 l 1
 389.966 475 417.288 453 438.399 430 c 9
 417.426 412.06 384.622 384 384.622 384 c 0
 373.598 398 352.911 423 301.911 423 c 1
 247.911 423 189.771 380 176.806 319 c 0
 174.177 306.632 172.911 295.053 172.911 284.339 c 0
 172.911 230.078 205.311 198 257.086 198 c 0
 297.086 198 334.487 214 370.139 250 c 9
 404.787 206 l 1
 377.983 174 331.671 149 280.481 134 c 1
 260.077 38 l 1
 194.077 38 l 1
 214.906 136 l 1
EndSplineSet
EndChar
StartChar: sterling
Encoding: 98 163 139
Width: 547
Flags: W
HStem: 0 66<191.027 264.138> 291 66<116.883 213.854 307.883 468.854> 651 65<387.774 496.974>
Fore
213.854 291 m 1
 102.854 291 l 1
 116.883 357 l 1
 232.883 357 l 1
 281.56 586 347.19 716 443.189 716 c 0
 513.189 716 557.838 672 572.37 571 c 1
 501.732 568 l 1
 500.234 608 481.374 651 429.374 651 c 0
 397.374 651 345.505 534 328.926 456 c 0
 325.737 441 319.359 411 315.96 395 c 0
 313.195 382 310.646 370 307.883 357 c 1
 482.883 357 l 1
 468.854 291 l 1
 290.854 291 l 1
 269.814 216.919 222.314 123.312 191.027 66 c 1
 437.027 66 l 1
 453.241 67 470.454 68 501.468 101 c 1
 528.565 45 l 1
 498.126 10 457.275 6 417 0 c 1
 71 0 l 1
 100.663 64.127 184.896 185.721 213.854 291 c 1
EndSplineSet
EndChar
StartChar: currency
Encoding: 99 164 140
Width: 418
Flags: W
HStem: 183 96<90.3037 152.305 394.305 435.896> 219 65.7998<220.378 302.15> 461.2 63.7998<283.992 367.192> 462 96<149.605 188.201 436.201 495.201>
VStem: 136.696 67.5674<311.089 378.213> 384.703 64.8418<367.787 431.982>
Fore
206.282 373 m 0x6c
 204.919 366.583 204.264 360.335 204.264 354.321 c 0
 204.263 314.406 233.153 284.8 275.736 284.8 c 0
 324.736 284.8 372.269 324 382.684 373 c 0
 384.047 379.417 384.704 385.665 384.703 391.68 c 0
 384.703 431.595 355.815 461.2 313.231 461.2 c 0
 264.231 461.2 216.699 422 206.282 373 c 0x6c
353.289 246 m 1
 324.677 229 292.55 219 260.55 219 c 0x4c
 228.55 219 200.677 229 179.289 246 c 1
 165.896 183 l 1
 69.8975 183 l 1
 90.3037 279 l 1
 152.305 279 l 1
 142.271 297.022 136.696 317.926 136.696 340.714 c 0
 136.696 350.802 137.788 361.26 140.071 372 c 0
 147.298 406 164.889 437 188.201 462 c 1
 129.201 462 l 1
 149.605 558 l 1
 245.605 558 l 1x9c
 232.854 498 l 1
 261.467 515 293.592 525 325.592 525 c 0x2c
 357.592 525 385.467 515 406.854 498 c 1
 419.605 558 l 1
 515.605 558 l 1
 495.201 462 l 1
 436.201 462 l 1
 444.755 445.146 449.545 425.565 449.545 404.176 c 0
 449.545 393.838 448.426 383.078 446.071 372 c 0
 438.632 337 419.83 305 394.305 279 c 1
 456.305 279 l 1
 435.896 183 l 1
 339.896 183 l 1x9c
 353.289 246 l 1
EndSplineSet
EndChar
StartChar: yen
Encoding: 100 165 141
Width: 542
Flags: W
HStem: 0 21G<230 304> 162 66<126.463 264.436 352.463 487.436> 333 66<162.812 288.812 416.812 523.781>
Fore
300.781 333 m 1
 148.781 333 l 1
 162.812 399 l 1
 288.812 399 l 1
 180.964 682 l 1
 256.964 682 l 1
 356.298 406 l 1
 582.964 682 l 1
 658.964 682 l 1
 416.812 399 l 1
 537.812 399 l 1
 523.781 333 l 1
 374.781 333 l 1
 352.463 228 l 1
 501.463 228 l 1
 487.436 162 l 1
 338.436 162 l 1
 304 0 l 1
 230 0 l 1
 264.436 162 l 1
 112.436 162 l 1
 126.463 228 l 1
 278.463 228 l 1
 300.781 333 l 1
EndSplineSet
EndChar
StartChar: brokenbar
Encoding: 101 166 142
Width: 149
Flags: W
HStem: 0 21G<44 114>
VStem: 44 218.79<0 700>
Fore
180.955 315 m 17
 114 0 l 1
 44 0 l 1
 110.955 315 l 9
 180.955 315 l 17
125.834 385 m 17
 192.79 700 l 1
 262.79 700 l 1
 195.834 385 l 9
 125.834 385 l 17
EndSplineSet
EndChar
StartChar: section
Encoding: 102 167 143
Width: 335
Flags: W
HStem: 51 66<163.169 237.869> 211 66<209.821 287.794> 406 66<186.019 291.549> 566 66<249.307 327.983>
VStem: 105.36 72.6357<313.067 403.881> 309.583 76.3281<278.061 371.206>
Fore
190.478 468 m 1
 200.151 470.606 210.981 471.999 223.327 472 c 0
 311.312 472 385.911 403.292 385.911 303.89 c 0
 385.911 289.529 384.352 274.527 381.052 259 c 0
 357.885 150 267.842 51 181.842 51 c 0
 123.842 51 80.6836 74.9004 55.1826 142 c 9
 129.246 147 l 17
 138.42 129 168.869 117 187.869 117 c 2
 189.869 117 l 2
 237.869 117 279.009 160 300.698 215 c 0
 300.858 215.404 300.935 215.752 300.935 216.046 c 0
 300.936 217.045 300.06 217.444 298.57 217.444 c 0
 292.588 217.444 276.706 211.002 267.851 211 c 0
 182.392 211 105.36 263.774 105.36 370.604 c 0
 105.36 387.685 107.329 406.149 111.549 426 c 0
 134.08 532 217.336 632 309.336 632 c 0
 375.336 632 400.234 608 431.331 552 c 1
 354.631 544 l 0
 345.394 557 319.307 566 303.307 566 c 2
 301.307 566 l 2
 249.307 566 213.953 522 190.478 468 c 1
307.366 284 m 0
 308.854 290.997 309.583 298.113 309.583 305.217 c 0
 309.583 355.978 272.337 406 208.298 406 c 0
 196.973 406 189.053 403.71 179.812 399 c 1
 178.582 393.222 177.996 387.385 177.996 381.557 c 0
 177.996 328.872 225.757 277 278.878 277 c 0
 281.618 277 284.667 276.911 287.725 276.911 c 0
 296.837 276.911 306.027 277.702 307.366 284 c 0
EndSplineSet
EndChar
StartChar: dieresis
Encoding: 103 168 144
Width: 388
Flags: W
HStem: 363 92<147.001 192.445 377.213 422.658>
VStem: 122.729 324.201<398.738 418.262 398.738 418.262>
Fore
353.936 409 m 0
 359.25 434 384.713 455 409.713 455 c 0
 431.55 455 446.931 438.977 446.93 418.262 c 0
 446.93 415.261 446.608 412.163 445.936 409 c 0
 440.622 384 415.158 363 390.158 363 c 0
 368.321 363 352.94 379.023 352.941 399.738 c 0
 352.94 402.738 353.263 405.838 353.936 409 c 0
123.723 408 m 0
 129.037 433 154.501 454 179.501 454 c 0
 201.338 454 216.718 437.977 216.718 417.262 c 0
 216.718 414.262 216.396 411.163 215.723 408 c 0
 210.409 383 184.945 362 159.945 362 c 0
 138.107 362 122.729 378.023 122.729 398.738 c 0
 122.729 401.738 123.051 404.838 123.723 408 c 0
EndSplineSet
EndChar
StartChar: copyright
Encoding: 104 169 145
Width: 460
Flags: W
HStem: 152 56<179.903 391.312> 265 55<273.629 326.426> 412 55<289.073 341.77> 524 56<232.28 443.694>
VStem: 92.9902 58.2236<240.292 366.407> 208.495 56.3057<329.809 368.586> 472.376 58.2256<365.594 491.711>
Fore
370.342 298 m 17
 348.516 280 318.327 265 290.326 265 c 0
 241.639 265 208.495 299.018 208.495 344.706 c 0
 208.496 351.566 209.241 358.689 210.796 366 c 0
 222.699 422 277.264 467 333.264 467 c 0
 361.264 467 385.926 456 400.1 438 c 9
 353.598 398 l 17
 346.298 406 334.573 412 321.573 412 c 0
 296.573 412 271.108 391 265.796 366 c 0
 265.124 362.837 264.801 359.738 264.801 356.738 c 0
 264.801 336.023 280.181 320 302.02 320 c 0
 315.02 320 331.081 325 341.781 333 c 9
 370.342 298 l 17
154.796 366 m 0
 152.377 354.622 151.214 343.518 151.214 332.81 c 0
 151.214 261.643 202.59 208 278.212 208 c 0
 365.212 208 450.305 279 468.796 366 c 0
 471.213 377.373 472.376 388.473 472.376 399.177 c 0
 472.376 470.357 421.006 524 345.38 524 c 0
 258.38 524 173.288 453 154.796 366 c 0
97.7959 366 m 0
 122.877 484 239.283 580 357.283 580 c 0
 460.013 580 530.601 507.238 530.602 410.546 c 0
 530.602 396.173 529.042 381.271 525.796 366 c 0
 500.714 248 384.309 152 266.309 152 c 0
 163.576 152 92.9902 224.761 92.9902 321.467 c 0
 92.9902 335.836 94.5508 350.733 97.7959 366 c 0
EndSplineSet
EndChar
StartChar: guillemotleft
Encoding: 106 171 146
Width: 426
Flags: W
HStem: 262 284<435.056 440.688>
VStem: 114.873 386.183<404 546>
Fore
435.056 546 m 1
 501.056 546 l 1
 376.873 404 l 1
 440.688 262 l 1
 374.688 262 l 1
 310.873 404 l 1
 435.056 546 l 1
239.056 546 m 1
 305.056 546 l 1
 180.873 404 l 1
 244.688 262 l 1
 178.688 262 l 1
 114.873 404 l 1
 239.056 546 l 1
EndSplineSet
EndChar
StartChar: logicalnot
Encoding: 107 172 147
Width: 501
Flags: W
HStem: 366 70<167.675 460.796>
VStem: 152.796 388.879<366 436>
Fore
505.54 266 m 1
 439.54 266 l 1
 460.796 366 l 0
 152.796 366 l 1
 167.675 436 l 1
 541.675 436 l 1
 505.54 266 l 1
EndSplineSet
EndChar
StartChar: registered
Encoding: 109 174 149
Width: 581
Flags: W
HStem: 118 57<234.357 444.297> 352 39<331.108 355.032> 455 38<344.713 421.129> 558 57<299.505 498.995>
VStem: 117.461 58.2549<190.299 358.885> 438.512 39.6787<421.499 460.702> 568.474 58.2324<371.258 541.663>
Fore
180.796 366 m 0
 177.327 349.682 175.716 334.48 175.716 320.367 c 0
 175.716 220.314 256.705 175 331.197 175 c 0
 418.197 175 537.862 244 563.796 366 c 0
 566.993 381.043 568.473 395.151 568.474 408.342 c 0
 568.474 510.896 479.059 558 412.605 558 c 0
 325.605 558 208.428 496 180.796 366 c 0
123.796 366 m 0
 160.355 538 315.724 615 424.724 615 c 0
 542.091 615 626.706 535.644 626.706 420.273 c 0
 626.706 402.945 624.793 384.806 620.796 366 c 0
 589.337 218 444.082 118 319.082 118 c 0
 218.328 118 117.461 182.478 117.461 308.744 c 0
 117.461 326.597 119.478 345.685 123.796 366 c 0
331.108 391 m 1
 339.108 391 347.108 391 356.108 391 c 0
 394.108 391 431.747 394 437.911 423 c 1
 438.317 424.908 438.511 426.704 438.512 428.392 c 0
 438.513 453.246 396.168 455 358.713 455 c 0
 353.713 455 348.713 455 344.713 455 c 1
 331.108 391 l 1
312.79 493 m 0
 352.79 493 l 2
 420.097 493 478.19 477.708 478.19 434.553 c 0
 478.19 430.903 477.773 427.055 476.911 423 c 0
 466.496 374 428.796 366 395.308 359 c 1
 449.438 242 l 1
 400.438 242 l 1
 355.032 353 l 1
 322.82 352 l 1
 299.438 242 l 1
 259.438 242 l 1
 312.79 493 l 0
EndSplineSet
EndChar
StartChar: macron
Encoding: 110 175 150
Width: 345
Flags: W
HStem: 486 66<148.331 429.304>
VStem: 134.304 309.027<486 552>
Fore
148.331 552 m 1
 443.331 552 l 1
 429.304 486 l 1
 134.304 486 l 1
 148.331 552 l 1
EndSplineSet
EndChar
StartChar: degree
Encoding: 111 176 151
Width: 292
Flags: W
HStem: 447 54.7305<214.197 309.79> 648.37 50.6299<238.311 333.906>
VStem: 142.958 58.8242<515.996 579.603> 346.32 58.3115<570.496 634.104>
Fore
203.551 575.05 m 0
 202.356 569.43 201.781 563.97 201.782 558.731 c 0
 201.782 525.858 224.413 501.73 258.466 501.73 c 0
 297.946 501.73 335.858 534.16 344.551 575.05 c 0
 345.744 580.67 346.319 586.13 346.32 591.369 c 0
 346.319 624.242 323.689 648.37 289.636 648.37 c 0
 250.155 648.37 212.242 615.94 203.551 575.05 c 0
145.795 573 m 0
 160.674 643 229.577 699 300.577 699 c 0
 362.436 699 404.632 656.492 404.632 599.252 c 0
 404.632 590.793 403.711 582.013 401.795 573 c 0
 386.916 503 318.013 447 247.013 447 c 0
 185.154 447 142.958 489.508 142.958 546.748 c 0
 142.958 555.207 143.879 563.987 145.795 573 c 0
EndSplineSet
EndChar
StartChar: acute
Encoding: 115 180 153
Width: 269
Flags: W
HStem: 561.911 209.035<195.552 344.976>
VStem: 171.94 203.505<583.794 741.182>
Fore
179.317 601.533 m 1
 312.162 754.972 l 1
 322.802 766.212 334.615 770.946 344.976 770.946 c 0
 353.189 770.946 360.491 767.971 365.569 762.904 c 0
 371.628 757.634 375.444 749.996 375.445 741.182 c 0
 375.444 732.182 371.466 721.956 361.826 711.774 c 1
 215.377 570.17 l 1
 209.195 564.307 202.102 561.911 195.552 561.911 c 0
 189.255 561.911 183.46 564.126 179.457 567.607 c 0
 175.006 571.479 171.941 577.202 171.94 583.794 c 0
 171.94 589.294 174.074 595.396 179.317 601.533 c 1
EndSplineSet
EndChar
StartChar: mu
Encoding: 116 181 154
Width: 490
Flags: W
HStem: -13 67<195.496 294.929>
VStem: 33.9766 481.572<-193 426>
Fore
152.684 36.1504 m 1
 103.977 -193 l 1
 33.9766 -193 l 1
 165.549 426 l 1
 236.549 426 l 0
 188.938 202 l 0
 183.634 177.052 181.13 155.732 181.13 137.696 c 0
 181.13 77.6543 208.877 54 253.479 54 c 1
 331.479 54 385.183 142 397.938 202 c 0
 445.549 426 l 9
 515.549 426 l 1
 425 0 l 1
 355 0 l 1
 365.203 48 l 17
 328.551 12 283.23 -13 244.235 -13 c 0
 184.235 -13 169.976 14 152.684 36.1504 c 1
EndSplineSet
EndChar
StartChar: paragraph
Encoding: 117 182 155
Width: 562
Flags: W
HStem: 0 66<329.027 435.027> 299 62<405.782 497.733> 304 61<379.617 458.391>
VStem: 157.672 71.8828<389.099 486.661>
Fore
445.724 615 m 1xd0
 392.583 365 l 1xb0
 409.583 365 479.731 361 497.733 361 c 1
 552.998 621 l 1
 535.998 621 463.724 615 445.724 615 c 1xd0
372.321 599 m 1
 316.708 582 246.756 554 232.304 486 c 1
 230.428 477.18 229.554 469.141 229.555 461.799 c 0
 229.554 405.876 280.245 390.375 325.348 378 c 1
 372.321 599 l 1
329.027 66 m 1
 435.027 66 l 1
 484.556 299 l 1xd0
 466.556 299 397.617 304 379.617 304 c 1
 329.027 66 l 1
245 0 m 1
 311.743 314 l 1
 223.838 333.996 157.672 363.818 157.672 445.522 c 0
 157.672 457.796 159.166 471.241 162.304 486 c 0
 190.36 618 367.964 682 543.964 682 c 1
 639.964 682 l 0
 495 0 l 1
 245 0 l 1
EndSplineSet
EndChar
StartChar: cedilla
Encoding: 119 184 157
Width: 231
Flags: W
HStem: -154 190<45.2666 146.652>
Fore
37.2324 -93 m 1
 54.5703 -82 90.248 -60 94.0723 -42 c 0
 94.5918 -39.5596 94.834 -37.2119 94.834 -34.9043 c 0
 94.834 -22.083 87.3291 -10.4922 77.9131 9 c 0
 146.652 36 l 0
 160.246 19.7686 171.78 -3.05078 171.78 -29.249 c 0
 171.78 -35.3301 171.159 -41.5938 169.797 -48 c 0
 158.319 -102 83.9424 -132 45.2666 -154 c 1
 37.2324 -93 l 1
EndSplineSet
EndChar
StartChar: guillemotright
Encoding: 122 187 158
Width: 456
Flags: W
HStem: 262 284<169.688 230.056>
VStem: 103.688 386.185<262 404>
Fore
230.056 546 m 1
 293.873 404 l 1
 169.688 262 l 1
 103.688 262 l 1
 227.873 404 l 1
 164.056 546 l 1
 230.056 546 l 1
426.056 546 m 1
 489.873 404 l 1
 365.688 262 l 1
 299.688 262 l 1
 423.873 404 l 1
 360.056 546 l 1
 426.056 546 l 1
EndSplineSet
EndChar
StartChar: AE
Encoding: 133 198 166
Width: 678
Flags: W
HStem: 0 71.9326<474.818 675.327> 315.11 69.8467<365.47 450.406 541.355 741.861> 638.285 72.7148<595.2 810.999>
Fore
450.406 315.11 m 1
 321.221 315.11 l 0
 128.015 0 l 0
 40.4453 0 l 1
 480.347 711 l 1
 826.455 711 l 1
 810.999 638.285 l 0
 595.2 638.285 l 0
 541.355 384.957 l 1
 757.152 384.957 l 1
 741.861 313.025 l 0
 526.064 313.025 l 0
 474.818 71.9326 l 0
 690.617 71.9326 l 1
 675.327 0 l 1
 383.428 0 l 1
 450.406 315.11 l 1
510.744 603.883 m 1
 518.5 640.37 l 1
 365.47 384.957 l 1
 465.253 384.957 l 1
 510.744 603.883 l 1
EndSplineSet
EndChar
StartChar: Eth
Encoding: 143 208 176
Width: 1938
Flags: W
HStem: 0 69.6797<250.611 523.481> 323.44 68.6396<153.857 227.749 319.141 451.271> 640.64 70.3604<371.974 615.3>
VStem: 648.566 78.0068<388.545 598.885>
Fore
227.749 323.44 m 1
 139.269 323.44 l 1
 153.857 392.08 l 1
 242.339 392.08 l 1
 310.128 711 l 1
 496.208 711 l 1
 644.284 711 726.573 602.923 726.573 453.023 c 0
 726.573 421.84 723.012 388.846 715.741 354.64 c 1
 673.519 156 520.84 0 345.08 0 c 0
 234.76 0 l 1
 159 0 l 1
 227.749 323.44 l 1
304.549 323.44 m 1
 250.611 69.6797 l 1
 359.891 69.6797 l 1
 485.729 69.6797 602.908 185.12 638.941 354.64 c 1
 645.448 385.253 648.566 414.136 648.566 440.916 c 0
 648.566 562.431 584.366 640.64 481.252 640.64 c 1
 371.974 640.64 l 1
 319.141 392.08 l 1
 465.859 392.08 l 1
 451.271 323.44 l 1
 304.549 323.44 l 1
EndSplineSet
EndChar
StartChar: figuredash
Encoding: 191 8210 186
Width: 531
Flags: W
HStem: 264 66<153.144 514.115>
VStem: 139.115 389.028<264 330>
Fore
153.144 330 m 1
 528.144 330 l 1
 514.115 264 l 1
 139.115 264 l 1
 153.144 330 l 1
EndSplineSet
EndChar
StartChar: endash
Encoding: 192 8211 187
Width: 489
Flags: W
HStem: 264 66<153.144 474.115>
VStem: 139.115 349.028<264 330>
Fore
153.144 330 m 1
 488.144 330 l 1
 474.115 264 l 1
 139.115 264 l 1
 153.144 330 l 1
EndSplineSet
EndChar
StartChar: emdash
Encoding: 193 8212 188
Width: 630
Flags: W
HStem: 264 66<143.144 622.115>
Fore
143.144 330 m 1
 636.144 330 l 1
 622.115 264 l 1
 129.115 264 l 1
 143.144 330 l 1
EndSplineSet
EndChar
